<svg width="40" height="40" viewBox="0 0 40 40" fill="none" xmlns="http://www.w3.org/2000/svg">
<path d="M0 10.6667C0 4.77563 4.77563 0 10.6667 0H29.3333C35.2244 0 40 4.77563 40 10.6667V29.3333C40 35.2244 35.2244 40 29.3333 40H10.6667C4.77563 40 0 35.2244 0 29.3333V10.6667Z" fill="#1459F5"/>
<path d="M21.001 14.7522L23 19.6663H30.001C29.161 18.1482 27.301 13.2473 26.581 11.98C25.861 10.7126 25.321 10.1847 24.601 10.3958C22.441 11.0295 21.361 13.4981 21.001 14.7522Z" fill="white"/>
<path d="M21.001 25.0495L22.801 21.6832L30.001 19.6667C29.161 21.1848 27.301 26.5545 26.581 27.8218C25.861 29.0891 25.321 29.6171 24.601 29.4059C22.441 28.7723 21.361 26.3037 21.001 25.0495Z" fill="white"/>
<path d="M15.6527 10H20.4127L15.0126 20.099L20.4127 30H15.5C14.492 30 14.3926 29.604 14.2126 29.4059C12.8326 26.8977 9.96465 21.6832 9.53265 20.8911C9.10065 20.099 9.47265 19.1089 9.71265 18.7129C10.5527 17.1287 12.4127 13.5644 13.1327 11.9802C13.8527 10.396 15.1127 10 15.6527 10Z" fill="white"/>
</svg>
