<svg width="24" height="24" viewBox="0 0 24 24" fill="none" xmlns="http://www.w3.org/2000/svg">
<g clip-path="url(#clip0_3_126)">
<rect width="24" height="24" fill="#1A1A1A"/>
<path d="M19.049 6.75H4.93601C4.59711 6.73618 4.26472 6.84587 4.0006 7.05867C3.73648 7.27147 3.5586 7.57292 3.50001 7.907L1.50001 21.822C1.48965 22.013 1.5198 22.2041 1.58847 22.3826C1.65715 22.5612 1.7628 22.7232 1.89849 22.858C2.03419 22.9929 2.19686 23.0975 2.37584 23.1651C2.55482 23.2326 2.74605 23.2616 2.93701 23.25H21.048C21.2389 23.2616 21.4301 23.2326 21.609 23.1651C21.788 23.0975 21.9506 22.9929 22.0862 22.858C22.2218 22.7231 22.3274 22.5611 22.3959 22.3826C22.4645 22.204 22.4945 22.013 22.484 21.822L20.484 7.907C20.4254 7.5731 20.2477 7.27179 19.9838 7.05901C19.7199 6.84623 19.3877 6.73643 19.049 6.75V6.75Z" stroke="#747474" stroke-width="2" stroke-linecap="round" stroke-linejoin="round"/>
<path d="M15.662 3.807C15.4977 2.94892 15.0401 2.17469 14.3676 1.61697C13.6952 1.05924 12.8496 0.752746 11.976 0.75V0.75C11.1066 0.753813 10.2654 1.05852 9.5953 1.61234C8.92517 2.16616 8.46747 2.93493 8.29999 3.788" stroke="#747474" stroke-width="2" stroke-linecap="round" stroke-linejoin="round"/>
</g>
<defs>
<clipPath id="clip0_3_126">
<rect width="24" height="24" fill="white"/>
</clipPath>
</defs>
</svg>
