<svg width="24" height="24" viewBox="0 0 24 24" fill="none" xmlns="http://www.w3.org/2000/svg">
<rect width="24" height="24" fill="#1A1A1A"/>
<path d="M12.6349 8.35715L9.46712 8.35715C7.61977 8.35715 5.84809 9.10217 4.54182 10.4283C3.23554 11.7545 2.50169 13.5531 2.50169 15.4286C2.50169 17.304 3.23554 19.1027 4.54182 20.4288C5.84809 21.755 7.61977 22.5 9.46712 22.5L21.5 22.5" stroke="#747474" stroke-width="2" stroke-linecap="round" stroke-linejoin="round"/>
<path d="M10.102 10.9286L12.6349 8.35715L10.102 5.78572" stroke="#747474" stroke-width="2" stroke-linecap="round" stroke-linejoin="round"/>
<path d="M11.3651 15.6429L14.5329 15.6429C16.3802 15.6429 18.1519 14.8978 19.4582 13.5717C20.7645 12.2455 21.4983 10.4469 21.4983 8.57142C21.4983 6.69596 20.7645 4.89732 19.4582 3.57117C18.1519 2.24502 16.3802 1.5 14.5329 1.5L2.5 1.5" stroke="#747474" stroke-width="2" stroke-linecap="round" stroke-linejoin="round"/>
<path d="M13.898 13.0714L11.3651 15.6429L13.898 18.2143" stroke="#747474" stroke-width="2" stroke-linecap="round" stroke-linejoin="round"/>
</svg>
