<svg width="48" height="48" viewBox="0 0 48 48" fill="none" xmlns="http://www.w3.org/2000/svg">
<g clip-path="url(#clip0_233_430)">
<path d="M47.2785 29.8057C44.0731 42.663 31.0508 50.4877 18.192 47.2815C5.33862 44.0761 -2.48606 31.0529 0.720718 18.1967C3.92468 5.33806 16.947 -2.48721 29.8018 0.718162C42.6597 3.92353 50.4839 16.9481 47.2782 29.8059L47.2784 29.8057H47.2785Z" fill="#F7931A"/>
<path d="M34.5821 20.5807C35.0598 17.3868 32.6282 15.67 29.3031 14.5247L30.3818 10.1983L27.7482 9.54205L26.6982 13.7545C26.0058 13.5818 25.2948 13.4191 24.5881 13.2578L25.6458 9.01756L23.0138 8.36133L21.9346 12.6863C21.3616 12.5559 20.7989 12.4269 20.2529 12.2911L20.256 12.2775L16.6242 11.3706L15.9236 14.1834C15.9236 14.1834 17.8775 14.6313 17.8363 14.6589C18.9028 14.925 19.0957 15.631 19.0636 16.1906L17.8349 21.1194C17.9084 21.138 18.0036 21.165 18.1087 21.2072C18.0209 21.1854 17.9274 21.1616 17.8304 21.1384L16.1081 28.0429C15.9778 28.3669 15.647 28.8531 14.9014 28.6685C14.9278 28.7067 12.9872 28.1908 12.9872 28.1908L11.6797 31.2054L15.1069 32.0598C15.7445 32.2197 16.3693 32.387 16.9846 32.5443L15.8947 36.9203L18.5253 37.5765L19.6046 33.247C20.3232 33.442 21.0206 33.622 21.7033 33.7916L20.6277 38.1008L23.2614 38.757L24.3511 34.3892C28.842 35.2391 32.2188 34.8965 33.6401 30.8345C34.7854 27.5641 33.5831 25.6778 31.2204 24.4477C32.9413 24.0508 34.2374 22.919 34.583 20.581L34.5822 20.5804L34.5821 20.5807ZM28.5649 29.0183C27.751 32.2887 22.2447 30.5208 20.4595 30.0775L21.9057 24.28C23.6908 24.7257 29.4155 25.6076 28.565 29.0183H28.5649ZM29.3794 20.5333C28.6369 23.508 24.054 21.9967 22.5673 21.6261L23.8785 16.3682C25.3652 16.7388 30.1528 17.4304 29.3796 20.5333H29.3794Z" fill="white"/>
</g>
<defs>
<clipPath id="clip0_233_430">
<rect width="48" height="48" fill="white"/>
</clipPath>
</defs>
</svg>
