<svg width="921" height="297" viewBox="0 0 921 297" fill="none" xmlns="http://www.w3.org/2000/svg">
<path d="M80.0001 5.99971H921M81.0001 55.9997H921M80.0001 106H921M80.0001 156H921M81.0001 206H921M82.0001 256H921M125.159 243.573L127.023 247.099L129.818 214.775C130.75 216.93 132.986 221.475 134.477 222.415C135.968 223.355 137.583 214.187 138.205 209.486L142.864 214.775L146.591 199.495L152.182 214.775L157.773 188.916L160.568 214.775L164.296 210.661L168.023 233.582L173.614 104.874L179.205 94.8825L182.932 116.04L186.659 111.926L189.455 131.908L194.114 94.8825L198.773 116.04L204.364 109.575L209.023 114.865L211.818 107.224L220.205 111.926L223 104.874L229.523 107.224L232.318 98.4088L234.182 104.874L240.705 96.6457L246.296 104.874L251.886 100.172L256.546 113.101L260.273 107.224L266.796 117.803L269.591 114.865L273.318 136.022L276.114 134.259L279.841 139.548L283.568 109.575L289.159 111.926L291.955 104.874L298.477 109.575L303.136 98.4088L313.386 126.619L316.182 114.865L322.705 119.566L326.432 109.575C327.985 111.338 331.277 114.865 332.023 114.865C332.768 114.865 335.439 107.028 336.682 103.11L340.409 114.865L346.932 96.6457L352.523 107.224L355.318 66.6725L360.909 70.1988L368.364 49.0413L373.023 87.2423L378.614 81.9529L381.409 107.224L385.136 101.935L389.796 125.443L392.591 117.803L396.318 173.048L400.977 161.294L406.568 171.285L410.296 163.644L415.886 165.995L417.75 159.53L420.546 165.995L422.409 104.874L426.136 109.575L428.932 104.874L438.25 111.926L441.977 103.11L450.364 111.926L454.091 104.874L465.273 111.926L470.864 104.874L480.182 128.382L484.841 125.443L490.432 128.382L495.091 104.874L499.75 107.224L501.614 101.935L506.273 107.224L514.659 101.935L522.114 137.785L528.636 117.803L532.364 134.259L537.023 111.926L540.75 117.803L543.546 101.935L550.068 107.224L553.795 101.935L562.182 114.865L566.841 104.874L571.5 114.865L576.159 40.8134L582.682 117.803L586.409 109.575L593.864 114.865L601.318 67.848L605.045 74.9005L611.568 67.848L615.295 122.505L621.818 111.926L629.273 122.505L636.727 111.926L648.841 139.548L651.636 104.874L657.227 124.268L661.886 111.926L667.477 119.566L674 111.926L681.455 128.382L690.773 117.803L695.432 119.566L701.955 94.8825L707.546 122.505L715 107.224L719.659 109.575L724.318 70.1988L728.046 74.9005L731.773 62.5586L738.296 70.1988L743.886 64.9094V81.9529L749.477 74.9005L759.727 114.865L766.25 117.803L769.977 136.022L773.705 134.259L780.227 87.2423L782.091 114.865L786.75 104.874L790.477 107.224L793.273 93.1194L800.727 94.8825L810.977 30.2346H813.773C815.015 25.3371 817.873 15.5419 819.364 15.5419C820.855 15.5419 822.47 24.5535 823.091 29.0592L827.75 13.1911L830.546 40.8134C831.477 35.3281 833.527 24.1225 834.273 23.1822C835.018 22.2418 837.689 27.492 838.932 30.2346L840.796 29.0592L846.386 83.1284L851.046 93.1194L856.636 70.1988L861.296 119.566L868.75 77.839L875.273 80.1898L879 60.7955L885.523 64.9094L890.182 62.5586L895.773 64.9094L902.296 57.8569V13.1911L906.955 15.5419L911.614 33.1732L915.341 20.8313L920 23.1822V255.5H120.657M125.159 243.573L120.657 255.5M125.159 243.573L120.5 255.915M120.657 255.5L120.5 255.915M120.657 255.5H120.469M120.5 255.915L120.469 255.5M120.5 255.915L117.705 218.301M120.469 255.5L117.705 218.301M120.469 255.5H100V225.941L106.523 231.818C107.455 227.313 109.505 218.301 110.25 218.301C110.996 218.301 113.046 224.57 113.977 227.705L117.705 218.301M6.60405 6.54771C6.20806 6.39171 5.74005 6.25971 5.20005 6.16371C4.66005 6.06771 4.25206 5.98371 3.96405 5.89971C3.67605 5.82771 3.43605 5.70771 3.26805 5.53971C3.10005 5.38371 3.01605 5.16771 3.01605 4.89171C3.01605 4.50771 3.16005 4.21971 3.44805 4.00371C3.73605 3.78771 4.13205 3.67971 4.62405 3.67971C5.12805 3.67971 5.53606 3.81171 5.87206 4.07571C6.19606 4.33971 6.38805 4.68771 6.43605 5.11971H7.79206C7.75605 4.47171 7.51606 3.90771 7.07206 3.45171C6.62805 2.99571 6.04005 2.69571 5.32005 2.57571V1.30371H4.15605V2.53971C3.38805 2.63571 2.77605 2.89971 2.32005 3.34371C1.86405 3.78771 1.63605 4.33971 1.63605 4.98771C1.63605 5.51571 1.75605 5.93571 1.99605 6.24771C2.23605 6.57171 2.56005 6.81171 2.94405 6.96771C3.32805 7.12371 3.79605 7.24371 4.34805 7.33971C4.87605 7.43571 5.29605 7.53171 5.59606 7.61571C5.88405 7.71171 6.12405 7.83171 6.29205 7.99971C6.46005 8.16771 6.55606 8.38371 6.55606 8.65971C6.55606 9.05571 6.38805 9.36771 6.07605 9.58371C5.76405 9.79971 5.34405 9.90771 4.84005 9.90771C4.25206 9.90771 3.77205 9.76371 3.41205 9.46371C3.05205 9.16371 2.84805 8.76771 2.81205 8.26371L1.45605 8.23971C1.46805 8.98371 1.72005 9.59571 2.20005 10.0997C2.68005 10.6037 3.34005 10.9157 4.15605 11.0237V12.2837H5.32005V11.0477C5.82405 10.9997 6.28006 10.8557 6.67605 10.6157C7.07206 10.3757 7.38405 10.0757 7.60005 9.71571C7.81605 9.35571 7.93605 8.94771 7.93605 8.49171C7.93605 7.98771 7.80406 7.56771 7.56406 7.25571C7.31206 6.94371 6.98805 6.71571 6.60405 6.54771ZM11.6829 2.59971H10.3869V3.52371C10.3869 3.76371 10.3269 3.94371 10.2309 4.08771C10.1229 4.23171 9.96687 4.30371 9.77487 4.30371H8.45487V5.43171H9.83487C10.0629 5.43171 10.2429 5.39571 10.3629 5.32371V10.9997H11.6829V2.59971ZM12.6519 2.59971V3.76371H17.2239L13.3119 10.9997H14.7519L18.6879 3.48771V2.59971H12.6519ZM25.0406 7.32771C24.6926 6.96771 24.2486 6.73971 23.7206 6.63171C24.1766 6.53571 24.5486 6.31971 24.8606 5.97171C25.1606 5.63571 25.3166 5.22771 25.3166 4.74771C25.3166 4.31571 25.1966 3.91971 24.9686 3.58371C24.7286 3.24771 24.3926 2.99571 23.9606 2.80371C23.5286 2.61171 23.0126 2.51571 22.4366 2.51571C21.8486 2.51571 21.3326 2.61171 20.9006 2.80371C20.4686 2.99571 20.1326 3.24771 19.9046 3.58371C19.6646 3.91971 19.5566 4.31571 19.5566 4.74771C19.5566 5.23971 19.7006 5.64771 20.0006 5.98371C20.2886 6.31971 20.6606 6.53571 21.1166 6.63171C20.5886 6.75171 20.1566 6.97971 19.8206 7.33971C19.4846 7.69971 19.3166 8.16771 19.3166 8.73171C19.3166 9.18771 19.4366 9.59571 19.6886 9.95571C19.9286 10.3157 20.2886 10.5917 20.7566 10.7837C21.2246 10.9757 21.7886 11.0717 22.4366 11.0717C23.0846 11.0717 23.6366 10.9757 24.1046 10.7837C24.5726 10.5917 24.9326 10.3157 25.1846 9.95571C25.4246 9.59571 25.5566 9.18771 25.5566 8.73171C25.5566 8.15571 25.3766 7.68771 25.0406 7.32771ZM21.2966 3.88371C21.5846 3.64371 21.9686 3.52371 22.4366 3.52371C22.8926 3.52371 23.2766 3.64371 23.5646 3.88371C23.8526 4.12371 24.0086 4.42371 24.0086 4.78371C24.0086 5.15571 23.8526 5.45571 23.5646 5.69571C23.2766 5.93571 22.8926 6.04371 22.4366 6.04371C21.9686 6.04371 21.5846 5.93571 21.2966 5.69571C20.9966 5.46771 20.8526 5.16771 20.8526 4.78371C20.8526 4.42371 20.9966 4.12371 21.2966 3.88371ZM23.7206 9.67971C23.3846 9.94371 22.9526 10.0757 22.4366 10.0757C21.9086 10.0757 21.4766 9.94371 21.1406 9.67971C20.8046 9.41571 20.6366 9.07971 20.6366 8.65971C20.6366 8.25171 20.8046 7.91571 21.1406 7.63971C21.4766 7.36371 21.9086 7.21971 22.4366 7.21971C22.9406 7.21971 23.3726 7.36371 23.7086 7.63971C24.0446 7.91571 24.2246 8.25171 24.2246 8.65971C24.2246 9.07971 24.0566 9.41571 23.7206 9.67971ZM26.547 6.60771V6.99171C26.547 7.83171 26.679 8.55171 26.955 9.16371C27.231 9.78771 27.615 10.2557 28.119 10.5797C28.623 10.9157 29.199 11.0717 29.859 11.0717C30.507 11.0717 31.071 10.9157 31.575 10.5797C32.079 10.2557 32.463 9.78771 32.739 9.16371C33.015 8.55171 33.159 7.83171 33.159 6.99171V6.60771C33.159 5.81571 33.015 5.10771 32.739 4.48371C32.451 3.85971 32.067 3.37971 31.563 3.04371C31.059 2.70771 30.495 2.52771 29.859 2.52771C29.211 2.52771 28.635 2.70771 28.131 3.04371C27.627 3.37971 27.231 3.85971 26.955 4.48371C26.679 5.10771 26.547 5.81571 26.547 6.60771ZM31.287 4.48371C31.647 5.01171 31.827 5.73171 31.827 6.65571V6.94371C31.827 7.87971 31.647 8.59971 31.287 9.12771C30.927 9.65571 30.459 9.90771 29.859 9.90771C29.259 9.90771 28.779 9.65571 28.419 9.12771C28.059 8.59971 27.879 7.87971 27.879 6.94371V6.65571C27.879 5.73171 28.059 5.01171 28.419 4.48371C28.779 3.95571 29.259 3.69171 29.859 3.69171C30.459 3.69171 30.927 3.95571 31.287 4.48371ZM34.1642 6.60771V6.99171C34.1642 7.83171 34.2962 8.55171 34.5722 9.16371C34.8482 9.78771 35.2322 10.2557 35.7362 10.5797C36.2402 10.9157 36.8162 11.0717 37.4762 11.0717C38.1242 11.0717 38.6882 10.9157 39.1922 10.5797C39.6962 10.2557 40.0802 9.78771 40.3562 9.16371C40.6322 8.55171 40.7762 7.83171 40.7762 6.99171V6.60771C40.7762 5.81571 40.6322 5.10771 40.3562 4.48371C40.0682 3.85971 39.6842 3.37971 39.1802 3.04371C38.6762 2.70771 38.1122 2.52771 37.4762 2.52771C36.8282 2.52771 36.2522 2.70771 35.7482 3.04371C35.2442 3.37971 34.8482 3.85971 34.5722 4.48371C34.2962 5.10771 34.1642 5.81571 34.1642 6.60771ZM38.9042 4.48371C39.2642 5.01171 39.4442 5.73171 39.4442 6.65571V6.94371C39.4442 7.87971 39.2642 8.59971 38.9042 9.12771C38.5442 9.65571 38.0762 9.90771 37.4762 9.90771C36.8762 9.90771 36.3962 9.65571 36.0362 9.12771C35.6762 8.59971 35.4962 7.87971 35.4962 6.94371V6.65571C35.4962 5.73171 35.6762 5.01171 36.0362 4.48371C36.3962 3.95571 36.8762 3.69171 37.4762 3.69171C38.0762 3.69171 38.5442 3.95571 38.9042 4.48371ZM42.6957 9.84771C42.4917 9.58371 42.2277 9.45171 41.9157 9.45171C41.6397 9.45171 41.4237 9.53571 41.2557 9.69171C41.0877 9.84771 41.0037 10.0397 41.0037 10.2677C41.0037 10.5197 41.0637 10.7117 41.1957 10.8437C41.3277 10.9757 41.4957 11.0357 41.7117 11.0357C41.8677 11.0357 41.9997 10.9997 42.1077 10.9157C42.1077 10.9517 42.1197 10.9997 42.1197 11.0717C42.1197 11.3117 42.0237 11.5277 41.8557 11.6957C41.6757 11.8757 41.4117 11.9717 41.0637 11.9717V12.6677C41.6637 12.6677 42.1317 12.4997 42.4797 12.1757C42.8157 11.8637 42.9957 11.4077 42.9957 10.8317C42.9957 10.4477 42.8877 10.1117 42.6957 9.84771ZM43.2697 6.60771V6.99171C43.2697 7.83171 43.4017 8.55171 43.6777 9.16371C43.9537 9.78771 44.3377 10.2557 44.8417 10.5797C45.3457 10.9157 45.9217 11.0717 46.5817 11.0717C47.2297 11.0717 47.7937 10.9157 48.2977 10.5797C48.8017 10.2557 49.1857 9.78771 49.4617 9.16371C49.7377 8.55171 49.8817 7.83171 49.8817 6.99171V6.60771C49.8817 5.81571 49.7377 5.10771 49.4617 4.48371C49.1737 3.85971 48.7897 3.37971 48.2857 3.04371C47.7817 2.70771 47.2177 2.52771 46.5817 2.52771C45.9337 2.52771 45.3577 2.70771 44.8537 3.04371C44.3497 3.37971 43.9537 3.85971 43.6777 4.48371C43.4017 5.10771 43.2697 5.81571 43.2697 6.60771ZM48.0097 4.48371C48.3697 5.01171 48.5497 5.73171 48.5497 6.65571V6.94371C48.5497 7.87971 48.3697 8.59971 48.0097 9.12771C47.6497 9.65571 47.1817 9.90771 46.5817 9.90771C45.9817 9.90771 45.5017 9.65571 45.1417 9.12771C44.7817 8.59971 44.6017 7.87971 44.6017 6.94371V6.65571C44.6017 5.73171 44.7817 5.01171 45.1417 4.48371C45.5017 3.95571 45.9817 3.69171 46.5817 3.69171C47.1817 3.69171 47.6497 3.95571 48.0097 4.48371ZM50.8869 6.60771V6.99171C50.8869 7.83171 51.0189 8.55171 51.2949 9.16371C51.5709 9.78771 51.9549 10.2557 52.4589 10.5797C52.9629 10.9157 53.5389 11.0717 54.1989 11.0717C54.8469 11.0717 55.4109 10.9157 55.9149 10.5797C56.4189 10.2557 56.8029 9.78771 57.0789 9.16371C57.3549 8.55171 57.4989 7.83171 57.4989 6.99171V6.60771C57.4989 5.81571 57.3549 5.10771 57.0789 4.48371C56.7909 3.85971 56.4069 3.37971 55.9029 3.04371C55.3989 2.70771 54.8349 2.52771 54.1989 2.52771C53.5509 2.52771 52.9749 2.70771 52.4709 3.04371C51.9669 3.37971 51.5709 3.85971 51.2949 4.48371C51.0189 5.10771 50.8869 5.81571 50.8869 6.60771ZM55.6269 4.48371C55.9869 5.01171 56.1669 5.73171 56.1669 6.65571V6.94371C56.1669 7.87971 55.9869 8.59971 55.6269 9.12771C55.2669 9.65571 54.7989 9.90771 54.1989 9.90771C53.5989 9.90771 53.1189 9.65571 52.7589 9.12771C52.3989 8.59971 52.2189 7.87971 52.2189 6.94371V6.65571C52.2189 5.73171 52.3989 5.01171 52.7589 4.48371C53.1189 3.95571 53.5989 3.69171 54.1989 3.69171C54.7989 3.69171 55.2669 3.95571 55.6269 4.48371ZM6.60405 56.5477C6.20806 56.3917 5.74005 56.2597 5.20005 56.1637C4.66005 56.0677 4.25206 55.9837 3.96405 55.8997C3.67605 55.8277 3.43605 55.7077 3.26805 55.5397C3.10005 55.3837 3.01605 55.1677 3.01605 54.8917C3.01605 54.5077 3.16005 54.2197 3.44805 54.0037C3.73605 53.7877 4.13205 53.6797 4.62405 53.6797C5.12805 53.6797 5.53606 53.8117 5.87206 54.0757C6.19606 54.3397 6.38805 54.6877 6.43605 55.1197H7.79206C7.75605 54.4717 7.51606 53.9077 7.07206 53.4517C6.62805 52.9957 6.04005 52.6957 5.32005 52.5757V51.3037H4.15605V52.5397C3.38805 52.6357 2.77605 52.8997 2.32005 53.3437C1.86405 53.7877 1.63605 54.3397 1.63605 54.9877C1.63605 55.5157 1.75605 55.9357 1.99605 56.2477C2.23605 56.5717 2.56005 56.8117 2.94405 56.9677C3.32805 57.1237 3.79605 57.2437 4.34805 57.3397C4.87605 57.4357 5.29605 57.5317 5.59606 57.6157C5.88405 57.7117 6.12405 57.8317 6.29205 57.9997C6.46005 58.1677 6.55606 58.3837 6.55606 58.6597C6.55606 59.0557 6.38805 59.3677 6.07605 59.5837C5.76405 59.7997 5.34405 59.9077 4.84005 59.9077C4.25206 59.9077 3.77205 59.7637 3.41205 59.4637C3.05205 59.1637 2.84805 58.7677 2.81205 58.2637L1.45605 58.2397C1.46805 58.9837 1.72005 59.5957 2.20005 60.0997C2.68005 60.6037 3.34005 60.9157 4.15605 61.0237V62.2837H5.32005V61.0477C5.82405 60.9997 6.28006 60.8557 6.67605 60.6157C7.07206 60.3757 7.38405 60.0757 7.60005 59.7157C7.81605 59.3557 7.93605 58.9477 7.93605 58.4917C7.93605 57.9877 7.80406 57.5677 7.56406 57.2557C7.31206 56.9437 6.98805 56.7157 6.60405 56.5477ZM11.6829 52.5997H10.3869V53.5237C10.3869 53.7637 10.3269 53.9437 10.2309 54.0877C10.1229 54.2317 9.96687 54.3037 9.77487 54.3037H8.45487V55.4317H9.83487C10.0629 55.4317 10.2429 55.3957 10.3629 55.3237V60.9997H11.6829V52.5997ZM12.6519 52.5997V53.7637H17.2239L13.3119 60.9997H14.7519L18.6879 53.4877V52.5997H12.6519ZM19.5669 58.4317C19.6869 58.9237 19.8549 59.3557 20.0949 59.7157C20.3709 60.1477 20.7309 60.4837 21.1749 60.7237C21.6069 60.9637 22.1109 61.0717 22.6869 61.0717C23.2629 61.0717 23.7909 60.9517 24.2469 60.7117C24.7029 60.4717 25.0629 60.1357 25.3149 59.7037C25.5669 59.2717 25.6989 58.7917 25.6989 58.2397C25.6989 57.6877 25.5789 57.1957 25.3389 56.7637C25.0989 56.3317 24.7749 56.0077 24.3429 55.7677C23.9109 55.5277 23.4189 55.4077 22.8669 55.4077C22.3629 55.4077 21.9309 55.5157 21.5469 55.7317C21.1629 55.9477 20.8869 56.2477 20.6949 56.6197C20.6589 56.6677 20.6349 56.7157 20.6229 56.7517C20.6109 56.7877 20.5989 56.8117 20.5989 56.8237V56.4997C20.5989 55.6237 20.7669 54.9277 21.1269 54.4117C21.4749 53.8957 21.9669 53.6317 22.6029 53.6317C23.0349 53.6317 23.3949 53.7517 23.6829 53.9677C23.9709 54.1957 24.1509 54.5077 24.2469 54.9037H25.5669C25.4589 54.1717 25.1469 53.5957 24.6309 53.1637C24.1149 52.7437 23.4669 52.5277 22.6989 52.5277C22.0029 52.5277 21.4149 52.7077 20.9229 53.0437C20.4189 53.3917 20.0469 53.8837 19.7829 54.5317C19.5189 55.1797 19.3869 55.9597 19.3869 56.8597C19.3869 57.4237 19.4469 57.9517 19.5669 58.4317ZM23.9229 56.9917C24.2229 57.3157 24.3789 57.7357 24.3789 58.2397C24.3789 58.7557 24.2229 59.1757 23.9109 59.4997C23.5989 59.8237 23.1789 59.9797 22.6749 59.9797C22.1709 59.9797 21.7629 59.8237 21.4509 59.4997C21.1389 59.1877 20.9829 58.7677 20.9829 58.2517C20.9829 57.7357 21.1389 57.3157 21.4629 56.9917C21.7749 56.6677 22.1949 56.4997 22.7109 56.4997C23.2149 56.4997 23.6109 56.6677 23.9229 56.9917ZM26.7111 56.6077V56.9917C26.7111 57.8317 26.8431 58.5517 27.1191 59.1637C27.3951 59.7877 27.7791 60.2557 28.2831 60.5797C28.7871 60.9157 29.3631 61.0717 30.0231 61.0717C30.6711 61.0717 31.2351 60.9157 31.7391 60.5797C32.2431 60.2557 32.6271 59.7877 32.9031 59.1637C33.1791 58.5517 33.3231 57.8317 33.3231 56.9917V56.6077C33.3231 55.8157 33.1791 55.1077 32.9031 54.4837C32.6151 53.8597 32.2311 53.3797 31.7271 53.0437C31.2231 52.7077 30.6591 52.5277 30.0231 52.5277C29.3751 52.5277 28.7991 52.7077 28.2951 53.0437C27.7911 53.3797 27.3951 53.8597 27.1191 54.4837C26.8431 55.1077 26.7111 55.8157 26.7111 56.6077ZM31.4511 54.4837C31.8111 55.0117 31.9911 55.7317 31.9911 56.6557V56.9437C31.9911 57.8797 31.8111 58.5997 31.4511 59.1277C31.0911 59.6557 30.6231 59.9077 30.0231 59.9077C29.4231 59.9077 28.9431 59.6557 28.5831 59.1277C28.2231 58.5997 28.0431 57.8797 28.0431 56.9437V56.6557C28.0431 55.7317 28.2231 55.0117 28.5831 54.4837C28.9431 53.9557 29.4231 53.6917 30.0231 53.6917C30.6231 53.6917 31.0911 53.9557 31.4511 54.4837ZM34.3283 56.6077V56.9917C34.3283 57.8317 34.4603 58.5517 34.7363 59.1637C35.0123 59.7877 35.3963 60.2557 35.9003 60.5797C36.4043 60.9157 36.9803 61.0717 37.6403 61.0717C38.2883 61.0717 38.8523 60.9157 39.3563 60.5797C39.8603 60.2557 40.2443 59.7877 40.5203 59.1637C40.7963 58.5517 40.9403 57.8317 40.9403 56.9917V56.6077C40.9403 55.8157 40.7963 55.1077 40.5203 54.4837C40.2323 53.8597 39.8483 53.3797 39.3443 53.0437C38.8403 52.7077 38.2763 52.5277 37.6403 52.5277C36.9923 52.5277 36.4163 52.7077 35.9123 53.0437C35.4083 53.3797 35.0123 53.8597 34.7363 54.4837C34.4603 55.1077 34.3283 55.8157 34.3283 56.6077ZM39.0683 54.4837C39.4283 55.0117 39.6083 55.7317 39.6083 56.6557V56.9437C39.6083 57.8797 39.4283 58.5997 39.0683 59.1277C38.7083 59.6557 38.2403 59.9077 37.6403 59.9077C37.0403 59.9077 36.5603 59.6557 36.2003 59.1277C35.8403 58.5997 35.6603 57.8797 35.6603 56.9437V56.6557C35.6603 55.7317 35.8403 55.0117 36.2003 54.4837C36.5603 53.9557 37.0403 53.6917 37.6403 53.6917C38.2403 53.6917 38.7083 53.9557 39.0683 54.4837ZM42.8598 59.8477C42.6558 59.5837 42.3918 59.4517 42.0798 59.4517C41.8038 59.4517 41.5878 59.5357 41.4198 59.6917C41.2518 59.8477 41.1678 60.0397 41.1678 60.2677C41.1678 60.5197 41.2278 60.7117 41.3598 60.8437C41.4918 60.9757 41.6598 61.0357 41.8758 61.0357C42.0318 61.0357 42.1638 60.9997 42.2718 60.9157C42.2718 60.9517 42.2838 60.9997 42.2838 61.0717C42.2838 61.3117 42.1878 61.5277 42.0198 61.6957C41.8398 61.8757 41.5758 61.9717 41.2278 61.9717V62.6677C41.8278 62.6677 42.2958 62.4997 42.6438 62.1757C42.9798 61.8637 43.1598 61.4077 43.1598 60.8317C43.1598 60.4477 43.0518 60.1117 42.8598 59.8477ZM43.4337 56.6077V56.9917C43.4337 57.8317 43.5657 58.5517 43.8417 59.1637C44.1177 59.7877 44.5017 60.2557 45.0057 60.5797C45.5097 60.9157 46.0857 61.0717 46.7457 61.0717C47.3937 61.0717 47.9577 60.9157 48.4617 60.5797C48.9657 60.2557 49.3497 59.7877 49.6257 59.1637C49.9017 58.5517 50.0457 57.8317 50.0457 56.9917V56.6077C50.0457 55.8157 49.9017 55.1077 49.6257 54.4837C49.3377 53.8597 48.9537 53.3797 48.4497 53.0437C47.9457 52.7077 47.3817 52.5277 46.7457 52.5277C46.0977 52.5277 45.5217 52.7077 45.0177 53.0437C44.5137 53.3797 44.1177 53.8597 43.8417 54.4837C43.5657 55.1077 43.4337 55.8157 43.4337 56.6077ZM48.1737 54.4837C48.5337 55.0117 48.7137 55.7317 48.7137 56.6557V56.9437C48.7137 57.8797 48.5337 58.5997 48.1737 59.1277C47.8137 59.6557 47.3457 59.9077 46.7457 59.9077C46.1457 59.9077 45.6657 59.6557 45.3057 59.1277C44.9457 58.5997 44.7657 57.8797 44.7657 56.9437V56.6557C44.7657 55.7317 44.9457 55.0117 45.3057 54.4837C45.6657 53.9557 46.1457 53.6917 46.7457 53.6917C47.3457 53.6917 47.8137 53.9557 48.1737 54.4837ZM51.0509 56.6077V56.9917C51.0509 57.8317 51.1829 58.5517 51.4589 59.1637C51.7349 59.7877 52.1189 60.2557 52.6229 60.5797C53.1269 60.9157 53.7029 61.0717 54.3629 61.0717C55.0109 61.0717 55.5749 60.9157 56.0789 60.5797C56.5829 60.2557 56.9669 59.7877 57.2429 59.1637C57.5189 58.5517 57.6629 57.8317 57.6629 56.9917V56.6077C57.6629 55.8157 57.5189 55.1077 57.2429 54.4837C56.9549 53.8597 56.5709 53.3797 56.0669 53.0437C55.5629 52.7077 54.9989 52.5277 54.3629 52.5277C53.7149 52.5277 53.1389 52.7077 52.6349 53.0437C52.1309 53.3797 51.7349 53.8597 51.4589 54.4837C51.1829 55.1077 51.0509 55.8157 51.0509 56.6077ZM55.7909 54.4837C56.1509 55.0117 56.3309 55.7317 56.3309 56.6557V56.9437C56.3309 57.8797 56.1509 58.5997 55.7909 59.1277C55.4309 59.6557 54.9629 59.9077 54.3629 59.9077C53.7629 59.9077 53.2829 59.6557 52.9229 59.1277C52.5629 58.5997 52.3829 57.8797 52.3829 56.9437V56.6557C52.3829 55.7317 52.5629 55.0117 52.9229 54.4837C53.2829 53.9557 53.7629 53.6917 54.3629 53.6917C54.9629 53.6917 55.4309 53.9557 55.7909 54.4837ZM6.60405 106.548C6.20806 106.392 5.74005 106.26 5.20005 106.164C4.66005 106.068 4.25206 105.984 3.96405 105.9C3.67605 105.828 3.43605 105.708 3.26805 105.54C3.10005 105.384 3.01605 105.168 3.01605 104.892C3.01605 104.508 3.16005 104.22 3.44805 104.004C3.73605 103.788 4.13205 103.68 4.62405 103.68C5.12805 103.68 5.53606 103.812 5.87206 104.076C6.19606 104.34 6.38805 104.688 6.43605 105.12H7.79206C7.75605 104.472 7.51606 103.908 7.07206 103.452C6.62805 102.996 6.04005 102.696 5.32005 102.576V101.304H4.15605V102.54C3.38805 102.636 2.77605 102.9 2.32005 103.344C1.86405 103.788 1.63605 104.34 1.63605 104.988C1.63605 105.516 1.75605 105.936 1.99605 106.248C2.23605 106.572 2.56005 106.812 2.94405 106.968C3.32805 107.124 3.79605 107.244 4.34805 107.34C4.87605 107.436 5.29605 107.532 5.59606 107.616C5.88405 107.712 6.12405 107.832 6.29205 108C6.46005 108.168 6.55606 108.384 6.55606 108.66C6.55606 109.056 6.38805 109.368 6.07605 109.584C5.76405 109.8 5.34405 109.908 4.84005 109.908C4.25206 109.908 3.77205 109.764 3.41205 109.464C3.05205 109.164 2.84805 108.768 2.81205 108.264L1.45605 108.24C1.46805 108.984 1.72005 109.596 2.20005 110.1C2.68005 110.604 3.34005 110.916 4.15605 111.024V112.284H5.32005V111.048C5.82405 111 6.28006 110.856 6.67605 110.616C7.07206 110.376 7.38405 110.076 7.60005 109.716C7.81605 109.356 7.93605 108.948 7.93605 108.492C7.93605 107.988 7.80406 107.568 7.56406 107.256C7.31206 106.944 6.98805 106.716 6.60405 106.548ZM11.6829 102.6H10.3869V103.524C10.3869 103.764 10.3269 103.944 10.2309 104.088C10.1229 104.232 9.96687 104.304 9.77487 104.304H8.45487V105.432H9.83487C10.0629 105.432 10.2429 105.396 10.3629 105.324V111H11.6829V102.6ZM12.6519 102.6V103.764H17.2239L13.3119 111H14.7519L18.6879 103.488V102.6H12.6519ZM18.5258 107.928V109.056H22.8218V111H24.1298V109.056H25.4018V107.904H24.1298V102.6H22.5218L18.5258 107.928ZM19.8578 107.904L22.8218 103.968V107.904H19.8578ZM26.172 106.608V106.992C26.172 107.832 26.304 108.552 26.58 109.164C26.856 109.788 27.24 110.256 27.744 110.58C28.248 110.916 28.824 111.072 29.484 111.072C30.132 111.072 30.696 110.916 31.2 110.58C31.704 110.256 32.088 109.788 32.364 109.164C32.64 108.552 32.784 107.832 32.784 106.992V106.608C32.784 105.816 32.64 105.108 32.364 104.484C32.076 103.86 31.692 103.38 31.188 103.044C30.684 102.708 30.12 102.528 29.484 102.528C28.836 102.528 28.26 102.708 27.756 103.044C27.252 103.38 26.856 103.86 26.58 104.484C26.304 105.108 26.172 105.816 26.172 106.608ZM30.912 104.484C31.272 105.012 31.452 105.732 31.452 106.656V106.944C31.452 107.88 31.272 108.6 30.912 109.128C30.552 109.656 30.084 109.908 29.484 109.908C28.884 109.908 28.404 109.656 28.044 109.128C27.684 108.6 27.504 107.88 27.504 106.944V106.656C27.504 105.732 27.684 105.012 28.044 104.484C28.404 103.956 28.884 103.692 29.484 103.692C30.084 103.692 30.552 103.956 30.912 104.484ZM33.7892 106.608V106.992C33.7892 107.832 33.9212 108.552 34.1972 109.164C34.4732 109.788 34.8572 110.256 35.3612 110.58C35.8652 110.916 36.4412 111.072 37.1012 111.072C37.7492 111.072 38.3132 110.916 38.8172 110.58C39.3212 110.256 39.7052 109.788 39.9812 109.164C40.2572 108.552 40.4012 107.832 40.4012 106.992V106.608C40.4012 105.816 40.2572 105.108 39.9812 104.484C39.6932 103.86 39.3092 103.38 38.8052 103.044C38.3012 102.708 37.7372 102.528 37.1012 102.528C36.4532 102.528 35.8772 102.708 35.3732 103.044C34.8692 103.38 34.4732 103.86 34.1972 104.484C33.9212 105.108 33.7892 105.816 33.7892 106.608ZM38.5292 104.484C38.8892 105.012 39.0692 105.732 39.0692 106.656V106.944C39.0692 107.88 38.8892 108.6 38.5292 109.128C38.1692 109.656 37.7012 109.908 37.1012 109.908C36.5012 109.908 36.0212 109.656 35.6612 109.128C35.3012 108.6 35.1212 107.88 35.1212 106.944V106.656C35.1212 105.732 35.3012 105.012 35.6612 104.484C36.0212 103.956 36.5012 103.692 37.1012 103.692C37.7012 103.692 38.1692 103.956 38.5292 104.484ZM42.3207 109.848C42.1167 109.584 41.8527 109.452 41.5407 109.452C41.2647 109.452 41.0487 109.536 40.8807 109.692C40.7127 109.848 40.6287 110.04 40.6287 110.268C40.6287 110.52 40.6887 110.712 40.8207 110.844C40.9527 110.976 41.1207 111.036 41.3367 111.036C41.4927 111.036 41.6247 111 41.7327 110.916C41.7327 110.952 41.7447 111 41.7447 111.072C41.7447 111.312 41.6487 111.528 41.4807 111.696C41.3007 111.876 41.0367 111.972 40.6887 111.972V112.668C41.2887 112.668 41.7567 112.5 42.1047 112.176C42.4407 111.864 42.6207 111.408 42.6207 110.832C42.6207 110.448 42.5127 110.112 42.3207 109.848ZM42.8947 106.608V106.992C42.8947 107.832 43.0267 108.552 43.3027 109.164C43.5787 109.788 43.9627 110.256 44.4667 110.58C44.9707 110.916 45.5467 111.072 46.2067 111.072C46.8547 111.072 47.4187 110.916 47.9227 110.58C48.4267 110.256 48.8107 109.788 49.0867 109.164C49.3627 108.552 49.5067 107.832 49.5067 106.992V106.608C49.5067 105.816 49.3627 105.108 49.0867 104.484C48.7987 103.86 48.4147 103.38 47.9107 103.044C47.4067 102.708 46.8427 102.528 46.2067 102.528C45.5587 102.528 44.9827 102.708 44.4787 103.044C43.9747 103.38 43.5787 103.86 43.3027 104.484C43.0267 105.108 42.8947 105.816 42.8947 106.608ZM47.6347 104.484C47.9947 105.012 48.1747 105.732 48.1747 106.656V106.944C48.1747 107.88 47.9947 108.6 47.6347 109.128C47.2747 109.656 46.8067 109.908 46.2067 109.908C45.6067 109.908 45.1267 109.656 44.7667 109.128C44.4067 108.6 44.2267 107.88 44.2267 106.944V106.656C44.2267 105.732 44.4067 105.012 44.7667 104.484C45.1267 103.956 45.6067 103.692 46.2067 103.692C46.8067 103.692 47.2747 103.956 47.6347 104.484ZM50.5119 106.608V106.992C50.5119 107.832 50.6439 108.552 50.9199 109.164C51.1959 109.788 51.5799 110.256 52.0839 110.58C52.5879 110.916 53.1639 111.072 53.8239 111.072C54.4719 111.072 55.0359 110.916 55.5399 110.58C56.0439 110.256 56.4279 109.788 56.7039 109.164C56.9799 108.552 57.1239 107.832 57.1239 106.992V106.608C57.1239 105.816 56.9799 105.108 56.7039 104.484C56.4159 103.86 56.0319 103.38 55.5279 103.044C55.0239 102.708 54.4599 102.528 53.8239 102.528C53.1759 102.528 52.5999 102.708 52.0959 103.044C51.5919 103.38 51.1959 103.86 50.9199 104.484C50.6439 105.108 50.5119 105.816 50.5119 106.608ZM55.2519 104.484C55.6119 105.012 55.7919 105.732 55.7919 106.656V106.944C55.7919 107.88 55.6119 108.6 55.2519 109.128C54.8919 109.656 54.4239 109.908 53.8239 109.908C53.2239 109.908 52.7439 109.656 52.3839 109.128C52.0239 108.6 51.8439 107.88 51.8439 106.944V106.656C51.8439 105.732 52.0239 105.012 52.3839 104.484C52.7439 103.956 53.2239 103.692 53.8239 103.692C54.4239 103.692 54.8919 103.956 55.2519 104.484ZM6.60405 156.548C6.20806 156.392 5.74005 156.26 5.20005 156.164C4.66005 156.068 4.25206 155.984 3.96405 155.9C3.67605 155.828 3.43605 155.708 3.26805 155.54C3.10005 155.384 3.01605 155.168 3.01605 154.892C3.01605 154.508 3.16005 154.22 3.44805 154.004C3.73605 153.788 4.13205 153.68 4.62405 153.68C5.12805 153.68 5.53606 153.812 5.87206 154.076C6.19606 154.34 6.38805 154.688 6.43605 155.12H7.79206C7.75605 154.472 7.51606 153.908 7.07206 153.452C6.62805 152.996 6.04005 152.696 5.32005 152.576V151.304H4.15605V152.54C3.38805 152.636 2.77605 152.9 2.32005 153.344C1.86405 153.788 1.63605 154.34 1.63605 154.988C1.63605 155.516 1.75605 155.936 1.99605 156.248C2.23605 156.572 2.56005 156.812 2.94405 156.968C3.32805 157.124 3.79605 157.244 4.34805 157.34C4.87605 157.436 5.29605 157.532 5.59606 157.616C5.88405 157.712 6.12405 157.832 6.29205 158C6.46005 158.168 6.55606 158.384 6.55606 158.66C6.55606 159.056 6.38805 159.368 6.07605 159.584C5.76405 159.8 5.34405 159.908 4.84005 159.908C4.25206 159.908 3.77205 159.764 3.41205 159.464C3.05205 159.164 2.84805 158.768 2.81205 158.264L1.45605 158.24C1.46805 158.984 1.72005 159.596 2.20005 160.1C2.68005 160.604 3.34005 160.916 4.15605 161.024V162.284H5.32005V161.048C5.82405 161 6.28006 160.856 6.67605 160.616C7.07206 160.376 7.38405 160.076 7.60005 159.716C7.81605 159.356 7.93605 158.948 7.93605 158.492C7.93605 157.988 7.80406 157.568 7.56406 157.256C7.31206 156.944 6.98805 156.716 6.60405 156.548ZM11.6829 152.6H10.3869V153.524C10.3869 153.764 10.3269 153.944 10.2309 154.088C10.1229 154.232 9.96687 154.304 9.77487 154.304H8.45487V155.432H9.83487C10.0629 155.432 10.2429 155.396 10.3629 155.324V161H11.6829V152.6ZM12.6519 152.6V153.764H17.2239L13.3119 161H14.7519L18.6879 153.488V152.6H12.6519ZM22.5895 157.184L19.3615 159.932V161H25.3135V159.836H21.2575L23.4895 157.976C24.0775 157.484 24.5215 157.028 24.8215 156.596C25.1095 156.164 25.2655 155.672 25.2655 155.096C25.2655 154.316 25.0015 153.692 24.4855 153.224C23.9575 152.756 23.2375 152.516 22.3015 152.516C21.7135 152.516 21.1975 152.636 20.7655 152.876C20.3215 153.116 19.9735 153.452 19.7335 153.86C19.4935 154.28 19.3735 154.748 19.3735 155.276V155.504H20.7055V155.348C20.7055 154.844 20.8495 154.436 21.1375 154.124C21.4255 153.812 21.8215 153.656 22.3015 153.656C22.7935 153.656 23.1895 153.788 23.4775 154.052C23.7655 154.316 23.9095 154.688 23.9095 155.156C23.9095 155.528 23.7895 155.864 23.5735 156.176C23.3575 156.488 23.0215 156.824 22.5895 157.184ZM26.2892 156.608V156.992C26.2892 157.832 26.4212 158.552 26.6972 159.164C26.9732 159.788 27.3572 160.256 27.8612 160.58C28.3652 160.916 28.9412 161.072 29.6012 161.072C30.2492 161.072 30.8132 160.916 31.3172 160.58C31.8212 160.256 32.2052 159.788 32.4812 159.164C32.7572 158.552 32.9012 157.832 32.9012 156.992V156.608C32.9012 155.816 32.7572 155.108 32.4812 154.484C32.1932 153.86 31.8092 153.38 31.3052 153.044C30.8012 152.708 30.2372 152.528 29.6012 152.528C28.9532 152.528 28.3772 152.708 27.8732 153.044C27.3692 153.38 26.9732 153.86 26.6972 154.484C26.4212 155.108 26.2892 155.816 26.2892 156.608ZM31.0292 154.484C31.3892 155.012 31.5692 155.732 31.5692 156.656V156.944C31.5692 157.88 31.3892 158.6 31.0292 159.128C30.6692 159.656 30.2012 159.908 29.6012 159.908C29.0012 159.908 28.5212 159.656 28.1612 159.128C27.8012 158.6 27.6212 157.88 27.6212 156.944V156.656C27.6212 155.732 27.8012 155.012 28.1612 154.484C28.5212 153.956 29.0012 153.692 29.6012 153.692C30.2012 153.692 30.6692 153.956 31.0292 154.484ZM33.9064 156.608V156.992C33.9064 157.832 34.0384 158.552 34.3144 159.164C34.5904 159.788 34.9744 160.256 35.4784 160.58C35.9824 160.916 36.5584 161.072 37.2184 161.072C37.8664 161.072 38.4304 160.916 38.9344 160.58C39.4384 160.256 39.8224 159.788 40.0984 159.164C40.3744 158.552 40.5184 157.832 40.5184 156.992V156.608C40.5184 155.816 40.3744 155.108 40.0984 154.484C39.8104 153.86 39.4264 153.38 38.9224 153.044C38.4184 152.708 37.8544 152.528 37.2184 152.528C36.5704 152.528 35.9944 152.708 35.4904 153.044C34.9864 153.38 34.5904 153.86 34.3144 154.484C34.0384 155.108 33.9064 155.816 33.9064 156.608ZM38.6464 154.484C39.0064 155.012 39.1864 155.732 39.1864 156.656V156.944C39.1864 157.88 39.0064 158.6 38.6464 159.128C38.2864 159.656 37.8184 159.908 37.2184 159.908C36.6184 159.908 36.1384 159.656 35.7784 159.128C35.4184 158.6 35.2384 157.88 35.2384 156.944V156.656C35.2384 155.732 35.4184 155.012 35.7784 154.484C36.1384 153.956 36.6184 153.692 37.2184 153.692C37.8184 153.692 38.2864 153.956 38.6464 154.484ZM42.4379 159.848C42.2339 159.584 41.9699 159.452 41.6579 159.452C41.3819 159.452 41.1659 159.536 40.9979 159.692C40.8299 159.848 40.7459 160.04 40.7459 160.268C40.7459 160.52 40.8059 160.712 40.9379 160.844C41.0699 160.976 41.2379 161.036 41.4539 161.036C41.6099 161.036 41.7419 161 41.8499 160.916C41.8499 160.952 41.8619 161 41.8619 161.072C41.8619 161.312 41.7659 161.528 41.5979 161.696C41.4179 161.876 41.1539 161.972 40.8059 161.972V162.668C41.4059 162.668 41.8739 162.5 42.2219 162.176C42.5579 161.864 42.7379 161.408 42.7379 160.832C42.7379 160.448 42.6299 160.112 42.4379 159.848ZM43.0119 156.608V156.992C43.0119 157.832 43.1439 158.552 43.4199 159.164C43.6959 159.788 44.0799 160.256 44.5839 160.58C45.0879 160.916 45.6639 161.072 46.3239 161.072C46.9719 161.072 47.5359 160.916 48.0399 160.58C48.5439 160.256 48.9279 159.788 49.2039 159.164C49.4799 158.552 49.6239 157.832 49.6239 156.992V156.608C49.6239 155.816 49.4799 155.108 49.2039 154.484C48.9159 153.86 48.5319 153.38 48.0279 153.044C47.5239 152.708 46.9599 152.528 46.3239 152.528C45.6759 152.528 45.0999 152.708 44.5959 153.044C44.0919 153.38 43.6959 153.86 43.4199 154.484C43.1439 155.108 43.0119 155.816 43.0119 156.608ZM47.7519 154.484C48.1119 155.012 48.2919 155.732 48.2919 156.656V156.944C48.2919 157.88 48.1119 158.6 47.7519 159.128C47.3919 159.656 46.9239 159.908 46.3239 159.908C45.7239 159.908 45.2439 159.656 44.8839 159.128C44.5239 158.6 44.3439 157.88 44.3439 156.944V156.656C44.3439 155.732 44.5239 155.012 44.8839 154.484C45.2439 153.956 45.7239 153.692 46.3239 153.692C46.9239 153.692 47.3919 153.956 47.7519 154.484ZM50.6291 156.608V156.992C50.6291 157.832 50.7611 158.552 51.0371 159.164C51.3131 159.788 51.6971 160.256 52.2011 160.58C52.7051 160.916 53.2811 161.072 53.9411 161.072C54.5891 161.072 55.1531 160.916 55.6571 160.58C56.1611 160.256 56.5451 159.788 56.8211 159.164C57.0971 158.552 57.2411 157.832 57.2411 156.992V156.608C57.2411 155.816 57.0971 155.108 56.8211 154.484C56.5331 153.86 56.1491 153.38 55.6451 153.044C55.1411 152.708 54.5771 152.528 53.9411 152.528C53.2931 152.528 52.7171 152.708 52.2131 153.044C51.7091 153.38 51.3131 153.86 51.0371 154.484C50.7611 155.108 50.6291 155.816 50.6291 156.608ZM55.3691 154.484C55.7291 155.012 55.9091 155.732 55.9091 156.656V156.944C55.9091 157.88 55.7291 158.6 55.3691 159.128C55.0091 159.656 54.5411 159.908 53.9411 159.908C53.3411 159.908 52.8611 159.656 52.5011 159.128C52.1411 158.6 51.9611 157.88 51.9611 156.944V156.656C51.9611 155.732 52.1411 155.012 52.5011 154.484C52.8611 153.956 53.3411 153.692 53.9411 153.692C54.5411 153.692 55.0091 153.956 55.3691 154.484ZM6.60405 206.548C6.20806 206.392 5.74005 206.26 5.20005 206.164C4.66005 206.068 4.25206 205.984 3.96405 205.9C3.67605 205.828 3.43605 205.708 3.26805 205.54C3.10005 205.384 3.01605 205.168 3.01605 204.892C3.01605 204.508 3.16005 204.22 3.44805 204.004C3.73605 203.788 4.13205 203.68 4.62405 203.68C5.12805 203.68 5.53606 203.812 5.87206 204.076C6.19606 204.34 6.38805 204.688 6.43605 205.12H7.79206C7.75605 204.472 7.51606 203.908 7.07206 203.452C6.62805 202.996 6.04005 202.696 5.32005 202.576V201.304H4.15605V202.54C3.38805 202.636 2.77605 202.9 2.32005 203.344C1.86405 203.788 1.63605 204.34 1.63605 204.988C1.63605 205.516 1.75605 205.936 1.99605 206.248C2.23605 206.572 2.56005 206.812 2.94405 206.968C3.32805 207.124 3.79605 207.244 4.34805 207.34C4.87605 207.436 5.29605 207.532 5.59606 207.616C5.88405 207.712 6.12405 207.832 6.29205 208C6.46005 208.168 6.55606 208.384 6.55606 208.66C6.55606 209.056 6.38805 209.368 6.07605 209.584C5.76405 209.8 5.34405 209.908 4.84005 209.908C4.25206 209.908 3.77205 209.764 3.41205 209.464C3.05205 209.164 2.84805 208.768 2.81205 208.264L1.45605 208.24C1.46805 208.984 1.72005 209.596 2.20005 210.1C2.68005 210.604 3.34005 210.916 4.15605 211.024V212.284H5.32005V211.048C5.82405 211 6.28006 210.856 6.67605 210.616C7.07206 210.376 7.38405 210.076 7.60005 209.716C7.81605 209.356 7.93605 208.948 7.93605 208.492C7.93605 207.988 7.80406 207.568 7.56406 207.256C7.31206 206.944 6.98805 206.716 6.60405 206.548ZM11.6829 202.6H10.3869V203.524C10.3869 203.764 10.3269 203.944 10.2309 204.088C10.1229 204.232 9.96687 204.304 9.77487 204.304H8.45487V205.432H9.83487C10.0629 205.432 10.2429 205.396 10.3629 205.324V211H11.6829V202.6ZM12.6519 202.6V203.764H17.2239L13.3119 211H14.7519L18.6879 203.488V202.6H12.6519ZM19.3634 206.608V206.992C19.3634 207.832 19.4954 208.552 19.7714 209.164C20.0474 209.788 20.4314 210.256 20.9354 210.58C21.4394 210.916 22.0154 211.072 22.6754 211.072C23.3234 211.072 23.8874 210.916 24.3914 210.58C24.8954 210.256 25.2794 209.788 25.5554 209.164C25.8314 208.552 25.9754 207.832 25.9754 206.992V206.608C25.9754 205.816 25.8314 205.108 25.5554 204.484C25.2674 203.86 24.8834 203.38 24.3794 203.044C23.8754 202.708 23.3114 202.528 22.6754 202.528C22.0274 202.528 21.4514 202.708 20.9474 203.044C20.4434 203.38 20.0474 203.86 19.7714 204.484C19.4954 205.108 19.3634 205.816 19.3634 206.608ZM24.1034 204.484C24.4634 205.012 24.6434 205.732 24.6434 206.656V206.944C24.6434 207.88 24.4634 208.6 24.1034 209.128C23.7434 209.656 23.2754 209.908 22.6754 209.908C22.0754 209.908 21.5954 209.656 21.2354 209.128C20.8754 208.6 20.6954 207.88 20.6954 206.944V206.656C20.6954 205.732 20.8754 205.012 21.2354 204.484C21.5954 203.956 22.0754 203.692 22.6754 203.692C23.2754 203.692 23.7434 203.956 24.1034 204.484ZM26.9806 206.608V206.992C26.9806 207.832 27.1126 208.552 27.3886 209.164C27.6646 209.788 28.0486 210.256 28.5526 210.58C29.0566 210.916 29.6326 211.072 30.2926 211.072C30.9406 211.072 31.5046 210.916 32.0086 210.58C32.5126 210.256 32.8966 209.788 33.1726 209.164C33.4486 208.552 33.5926 207.832 33.5926 206.992V206.608C33.5926 205.816 33.4486 205.108 33.1726 204.484C32.8846 203.86 32.5006 203.38 31.9966 203.044C31.4926 202.708 30.9286 202.528 30.2926 202.528C29.6446 202.528 29.0686 202.708 28.5646 203.044C28.0606 203.38 27.6646 203.86 27.3886 204.484C27.1126 205.108 26.9806 205.816 26.9806 206.608ZM31.7206 204.484C32.0806 205.012 32.2606 205.732 32.2606 206.656V206.944C32.2606 207.88 32.0806 208.6 31.7206 209.128C31.3606 209.656 30.8926 209.908 30.2926 209.908C29.6926 209.908 29.2126 209.656 28.8526 209.128C28.4926 208.6 28.3126 207.88 28.3126 206.944V206.656C28.3126 205.732 28.4926 205.012 28.8526 204.484C29.2126 203.956 29.6926 203.692 30.2926 203.692C30.8926 203.692 31.3606 203.956 31.7206 204.484ZM34.5978 206.608V206.992C34.5978 207.832 34.7298 208.552 35.0058 209.164C35.2818 209.788 35.6658 210.256 36.1698 210.58C36.6738 210.916 37.2498 211.072 37.9098 211.072C38.5578 211.072 39.1218 210.916 39.6258 210.58C40.1298 210.256 40.5138 209.788 40.7898 209.164C41.0658 208.552 41.2098 207.832 41.2098 206.992V206.608C41.2098 205.816 41.0658 205.108 40.7898 204.484C40.5018 203.86 40.1178 203.38 39.6138 203.044C39.1098 202.708 38.5458 202.528 37.9098 202.528C37.2618 202.528 36.6858 202.708 36.1818 203.044C35.6778 203.38 35.2818 203.86 35.0058 204.484C34.7298 205.108 34.5978 205.816 34.5978 206.608ZM39.3378 204.484C39.6978 205.012 39.8778 205.732 39.8778 206.656V206.944C39.8778 207.88 39.6978 208.6 39.3378 209.128C38.9778 209.656 38.5098 209.908 37.9098 209.908C37.3098 209.908 36.8298 209.656 36.4698 209.128C36.1098 208.6 35.9298 207.88 35.9298 206.944V206.656C35.9298 205.732 36.1098 205.012 36.4698 204.484C36.8298 203.956 37.3098 203.692 37.9098 203.692C38.5098 203.692 38.9778 203.956 39.3378 204.484ZM43.1293 209.848C42.9253 209.584 42.6613 209.452 42.3493 209.452C42.0733 209.452 41.8573 209.536 41.6893 209.692C41.5213 209.848 41.4373 210.04 41.4373 210.268C41.4373 210.52 41.4973 210.712 41.6293 210.844C41.7613 210.976 41.9293 211.036 42.1453 211.036C42.3013 211.036 42.4333 211 42.5413 210.916C42.5413 210.952 42.5533 211 42.5533 211.072C42.5533 211.312 42.4573 211.528 42.2893 211.696C42.1093 211.876 41.8453 211.972 41.4973 211.972V212.668C42.0973 212.668 42.5653 212.5 42.9133 212.176C43.2493 211.864 43.4293 211.408 43.4293 210.832C43.4293 210.448 43.3213 210.112 43.1293 209.848ZM43.7033 206.608V206.992C43.7033 207.832 43.8353 208.552 44.1113 209.164C44.3873 209.788 44.7713 210.256 45.2753 210.58C45.7793 210.916 46.3553 211.072 47.0153 211.072C47.6633 211.072 48.2273 210.916 48.7313 210.58C49.2353 210.256 49.6193 209.788 49.8953 209.164C50.1713 208.552 50.3153 207.832 50.3153 206.992V206.608C50.3153 205.816 50.1713 205.108 49.8953 204.484C49.6073 203.86 49.2233 203.38 48.7193 203.044C48.2153 202.708 47.6513 202.528 47.0153 202.528C46.3673 202.528 45.7913 202.708 45.2873 203.044C44.7833 203.38 44.3873 203.86 44.1113 204.484C43.8353 205.108 43.7033 205.816 43.7033 206.608ZM48.4433 204.484C48.8033 205.012 48.9833 205.732 48.9833 206.656V206.944C48.9833 207.88 48.8033 208.6 48.4433 209.128C48.0833 209.656 47.6153 209.908 47.0153 209.908C46.4153 209.908 45.9353 209.656 45.5753 209.128C45.2153 208.6 45.0353 207.88 45.0353 206.944V206.656C45.0353 205.732 45.2153 205.012 45.5753 204.484C45.9353 203.956 46.4153 203.692 47.0153 203.692C47.6153 203.692 48.0833 203.956 48.4433 204.484ZM51.3205 206.608V206.992C51.3205 207.832 51.4525 208.552 51.7285 209.164C52.0045 209.788 52.3885 210.256 52.8925 210.58C53.3965 210.916 53.9725 211.072 54.6325 211.072C55.2805 211.072 55.8445 210.916 56.3485 210.58C56.8525 210.256 57.2365 209.788 57.5125 209.164C57.7885 208.552 57.9325 207.832 57.9325 206.992V206.608C57.9325 205.816 57.7885 205.108 57.5125 204.484C57.2245 203.86 56.8405 203.38 56.3365 203.044C55.8325 202.708 55.2685 202.528 54.6325 202.528C53.9845 202.528 53.4085 202.708 52.9045 203.044C52.4005 203.38 52.0045 203.86 51.7285 204.484C51.4525 205.108 51.3205 205.816 51.3205 206.608ZM56.0605 204.484C56.4205 205.012 56.6005 205.732 56.6005 206.656V206.944C56.6005 207.88 56.4205 208.6 56.0605 209.128C55.7005 209.656 55.2325 209.908 54.6325 209.908C54.0325 209.908 53.5525 209.656 53.1925 209.128C52.8325 208.6 52.6525 207.88 52.6525 206.944V206.656C52.6525 205.732 52.8325 205.012 53.1925 204.484C53.5525 203.956 54.0325 203.692 54.6325 203.692C55.2325 203.692 55.7005 203.956 56.0605 204.484ZM6.60405 256.548C6.20806 256.392 5.74005 256.26 5.20005 256.164C4.66005 256.068 4.25206 255.984 3.96405 255.9C3.67605 255.828 3.43605 255.708 3.26805 255.54C3.10005 255.384 3.01605 255.168 3.01605 254.892C3.01605 254.508 3.16005 254.22 3.44805 254.004C3.73605 253.788 4.13205 253.68 4.62405 253.68C5.12805 253.68 5.53606 253.812 5.87206 254.076C6.19606 254.34 6.38805 254.688 6.43605 255.12H7.79206C7.75605 254.472 7.51606 253.908 7.07206 253.452C6.62805 252.996 6.04005 252.696 5.32005 252.576V251.304H4.15605V252.54C3.38805 252.636 2.77605 252.9 2.32005 253.344C1.86405 253.788 1.63605 254.34 1.63605 254.988C1.63605 255.516 1.75605 255.936 1.99605 256.248C2.23605 256.572 2.56005 256.812 2.94405 256.968C3.32805 257.124 3.79605 257.244 4.34805 257.34C4.87605 257.436 5.29605 257.532 5.59606 257.616C5.88405 257.712 6.12405 257.832 6.29205 258C6.46005 258.168 6.55606 258.384 6.55606 258.66C6.55606 259.056 6.38805 259.368 6.07605 259.584C5.76405 259.8 5.34405 259.908 4.84005 259.908C4.25206 259.908 3.77205 259.764 3.41205 259.464C3.05205 259.164 2.84805 258.768 2.81205 258.264L1.45605 258.24C1.46805 258.984 1.72005 259.596 2.20005 260.1C2.68005 260.604 3.34005 260.916 4.15605 261.024V262.284H5.32005V261.048C5.82405 261 6.28006 260.856 6.67605 260.616C7.07206 260.376 7.38405 260.076 7.60005 259.716C7.81605 259.356 7.93605 258.948 7.93605 258.492C7.93605 257.988 7.80406 257.568 7.56406 257.256C7.31206 256.944 6.98805 256.716 6.60405 256.548ZM11.6829 252.6H10.3869V253.524C10.3869 253.764 10.3269 253.944 10.2309 254.088C10.1229 254.232 9.96687 254.304 9.77487 254.304H8.45487V255.432H9.83487C10.0629 255.432 10.2429 255.396 10.3629 255.324V261H11.6829V252.6ZM13.1919 258.432C13.3119 258.924 13.4799 259.356 13.7199 259.716C13.9959 260.148 14.3559 260.484 14.7999 260.724C15.2319 260.964 15.7359 261.072 16.3119 261.072C16.8879 261.072 17.4159 260.952 17.8719 260.712C18.3279 260.472 18.6879 260.136 18.9399 259.704C19.1919 259.272 19.3239 258.792 19.3239 258.24C19.3239 257.688 19.2039 257.196 18.9639 256.764C18.7239 256.332 18.3999 256.008 17.9679 255.768C17.5359 255.528 17.0439 255.408 16.4919 255.408C15.9879 255.408 15.5559 255.516 15.1719 255.732C14.7879 255.948 14.5119 256.248 14.3199 256.62C14.2839 256.668 14.2599 256.716 14.2479 256.752C14.2359 256.788 14.2239 256.812 14.2239 256.824V256.5C14.2239 255.624 14.3919 254.928 14.7519 254.412C15.0999 253.896 15.5919 253.632 16.2279 253.632C16.6599 253.632 17.0199 253.752 17.3079 253.968C17.5959 254.196 17.7759 254.508 17.8719 254.904H19.1919C19.0839 254.172 18.7719 253.596 18.2559 253.164C17.7399 252.744 17.0919 252.528 16.3239 252.528C15.6279 252.528 15.0399 252.708 14.5479 253.044C14.0439 253.392 13.6719 253.884 13.4079 254.532C13.1439 255.18 13.0119 255.96 13.0119 256.86C13.0119 257.424 13.0719 257.952 13.1919 258.432ZM17.5479 256.992C17.8479 257.316 18.0039 257.736 18.0039 258.24C18.0039 258.756 17.8479 259.176 17.5359 259.5C17.2239 259.824 16.8039 259.98 16.2999 259.98C15.7959 259.98 15.3879 259.824 15.0759 259.5C14.7639 259.188 14.6079 258.768 14.6079 258.252C14.6079 257.736 14.7639 257.316 15.0879 256.992C15.3999 256.668 15.8199 256.5 16.3359 256.5C16.8399 256.5 17.2359 256.668 17.5479 256.992ZM26.0601 257.328C25.7121 256.968 25.2681 256.74 24.7401 256.632C25.1961 256.536 25.5681 256.32 25.8801 255.972C26.1801 255.636 26.3361 255.228 26.3361 254.748C26.3361 254.316 26.2161 253.92 25.9881 253.584C25.7481 253.248 25.4121 252.996 24.9801 252.804C24.5481 252.612 24.0321 252.516 23.4561 252.516C22.8681 252.516 22.3521 252.612 21.9201 252.804C21.4881 252.996 21.1521 253.248 20.9241 253.584C20.6841 253.92 20.5761 254.316 20.5761 254.748C20.5761 255.24 20.7201 255.648 21.0201 255.984C21.3081 256.32 21.6801 256.536 22.1361 256.632C21.6081 256.752 21.1761 256.98 20.8401 257.34C20.5041 257.7 20.3361 258.168 20.3361 258.732C20.3361 259.188 20.4561 259.596 20.7081 259.956C20.9481 260.316 21.3081 260.592 21.7761 260.784C22.2441 260.976 22.8081 261.072 23.4561 261.072C24.1041 261.072 24.6561 260.976 25.1241 260.784C25.5921 260.592 25.9521 260.316 26.2041 259.956C26.4441 259.596 26.5761 259.188 26.5761 258.732C26.5761 258.156 26.3961 257.688 26.0601 257.328ZM22.3161 253.884C22.6041 253.644 22.9881 253.524 23.4561 253.524C23.9121 253.524 24.2961 253.644 24.5841 253.884C24.8721 254.124 25.0281 254.424 25.0281 254.784C25.0281 255.156 24.8721 255.456 24.5841 255.696C24.2961 255.936 23.9121 256.044 23.4561 256.044C22.9881 256.044 22.6041 255.936 22.3161 255.696C22.0161 255.468 21.8721 255.168 21.8721 254.784C21.8721 254.424 22.0161 254.124 22.3161 253.884ZM24.7401 259.68C24.4041 259.944 23.9721 260.076 23.4561 260.076C22.9281 260.076 22.4961 259.944 22.1601 259.68C21.8241 259.416 21.6561 259.08 21.6561 258.66C21.6561 258.252 21.8241 257.916 22.1601 257.64C22.4961 257.364 22.9281 257.22 23.4561 257.22C23.9601 257.22 24.3921 257.364 24.7281 257.64C25.0641 257.916 25.2441 258.252 25.2441 258.66C25.2441 259.08 25.0761 259.416 24.7401 259.68ZM27.5666 256.608V256.992C27.5666 257.832 27.6986 258.552 27.9746 259.164C28.2506 259.788 28.6346 260.256 29.1386 260.58C29.6426 260.916 30.2186 261.072 30.8786 261.072C31.5266 261.072 32.0906 260.916 32.5946 260.58C33.0986 260.256 33.4826 259.788 33.7586 259.164C34.0346 258.552 34.1786 257.832 34.1786 256.992V256.608C34.1786 255.816 34.0346 255.108 33.7586 254.484C33.4706 253.86 33.0866 253.38 32.5826 253.044C32.0786 252.708 31.5146 252.528 30.8786 252.528C30.2306 252.528 29.6546 252.708 29.1506 253.044C28.6466 253.38 28.2506 253.86 27.9746 254.484C27.6986 255.108 27.5666 255.816 27.5666 256.608ZM32.3066 254.484C32.6666 255.012 32.8466 255.732 32.8466 256.656V256.944C32.8466 257.88 32.6666 258.6 32.3066 259.128C31.9466 259.656 31.4786 259.908 30.8786 259.908C30.2786 259.908 29.7986 259.656 29.4386 259.128C29.0786 258.6 28.8986 257.88 28.8986 256.944V256.656C28.8986 255.732 29.0786 255.012 29.4386 254.484C29.7986 253.956 30.2786 253.692 30.8786 253.692C31.4786 253.692 31.9466 253.956 32.3066 254.484ZM35.1837 256.608V256.992C35.1837 257.832 35.3157 258.552 35.5917 259.164C35.8677 259.788 36.2517 260.256 36.7557 260.58C37.2597 260.916 37.8357 261.072 38.4957 261.072C39.1437 261.072 39.7077 260.916 40.2117 260.58C40.7157 260.256 41.0997 259.788 41.3757 259.164C41.6517 258.552 41.7957 257.832 41.7957 256.992V256.608C41.7957 255.816 41.6517 255.108 41.3757 254.484C41.0877 253.86 40.7037 253.38 40.1997 253.044C39.6957 252.708 39.1317 252.528 38.4957 252.528C37.8477 252.528 37.2717 252.708 36.7677 253.044C36.2637 253.38 35.8677 253.86 35.5917 254.484C35.3157 255.108 35.1837 255.816 35.1837 256.608ZM39.9237 254.484C40.2837 255.012 40.4637 255.732 40.4637 256.656V256.944C40.4637 257.88 40.2837 258.6 39.9237 259.128C39.5637 259.656 39.0957 259.908 38.4957 259.908C37.8957 259.908 37.4157 259.656 37.0557 259.128C36.6957 258.6 36.5157 257.88 36.5157 256.944V256.656C36.5157 255.732 36.6957 255.012 37.0557 254.484C37.4157 253.956 37.8957 253.692 38.4957 253.692C39.0957 253.692 39.5637 253.956 39.9237 254.484ZM43.7153 259.848C43.5113 259.584 43.2473 259.452 42.9353 259.452C42.6593 259.452 42.4433 259.536 42.2753 259.692C42.1073 259.848 42.0233 260.04 42.0233 260.268C42.0233 260.52 42.0833 260.712 42.2153 260.844C42.3473 260.976 42.5153 261.036 42.7313 261.036C42.8873 261.036 43.0193 261 43.1273 260.916C43.1273 260.952 43.1393 261 43.1393 261.072C43.1393 261.312 43.0433 261.528 42.8753 261.696C42.6953 261.876 42.4313 261.972 42.0833 261.972V262.668C42.6833 262.668 43.1513 262.5 43.4993 262.176C43.8353 261.864 44.0153 261.408 44.0153 260.832C44.0153 260.448 43.9073 260.112 43.7153 259.848ZM44.2892 256.608V256.992C44.2892 257.832 44.4212 258.552 44.6972 259.164C44.9732 259.788 45.3572 260.256 45.8612 260.58C46.3652 260.916 46.9412 261.072 47.6012 261.072C48.2492 261.072 48.8132 260.916 49.3172 260.58C49.8212 260.256 50.2052 259.788 50.4812 259.164C50.7572 258.552 50.9012 257.832 50.9012 256.992V256.608C50.9012 255.816 50.7572 255.108 50.4812 254.484C50.1932 253.86 49.8092 253.38 49.3052 253.044C48.8012 252.708 48.2372 252.528 47.6012 252.528C46.9532 252.528 46.3772 252.708 45.8732 253.044C45.3692 253.38 44.9732 253.86 44.6972 254.484C44.4212 255.108 44.2892 255.816 44.2892 256.608ZM49.0292 254.484C49.3892 255.012 49.5692 255.732 49.5692 256.656V256.944C49.5692 257.88 49.3892 258.6 49.0292 259.128C48.6692 259.656 48.2012 259.908 47.6012 259.908C47.0012 259.908 46.5212 259.656 46.1612 259.128C45.8012 258.6 45.6212 257.88 45.6212 256.944V256.656C45.6212 255.732 45.8012 255.012 46.1612 254.484C46.5212 253.956 47.0012 253.692 47.6012 253.692C48.2012 253.692 48.6692 253.956 49.0292 254.484ZM51.9064 256.608V256.992C51.9064 257.832 52.0384 258.552 52.3144 259.164C52.5904 259.788 52.9744 260.256 53.4784 260.58C53.9824 260.916 54.5584 261.072 55.2184 261.072C55.8664 261.072 56.4304 260.916 56.9344 260.58C57.4384 260.256 57.8224 259.788 58.0984 259.164C58.3744 258.552 58.5184 257.832 58.5184 256.992V256.608C58.5184 255.816 58.3744 255.108 58.0984 254.484C57.8104 253.86 57.4264 253.38 56.9224 253.044C56.4184 252.708 55.8544 252.528 55.2184 252.528C54.5704 252.528 53.9944 252.708 53.4904 253.044C52.9864 253.38 52.5904 253.86 52.3144 254.484C52.0384 255.108 51.9064 255.816 51.9064 256.608ZM56.6464 254.484C57.0064 255.012 57.1864 255.732 57.1864 256.656V256.944C57.1864 257.88 57.0064 258.6 56.6464 259.128C56.2864 259.656 55.8184 259.908 55.2184 259.908C54.6184 259.908 54.1384 259.656 53.7784 259.128C53.4184 258.6 53.2384 257.88 53.2384 256.944V256.656C53.2384 255.732 53.4184 255.012 53.7784 254.484C54.1384 253.956 54.6184 253.692 55.2184 253.692C55.8184 253.692 56.2864 253.956 56.6464 254.484ZM93.2981 283.2H91.6881V290.326C91.6881 290.76 91.5901 291.068 91.3941 291.264C91.1981 291.46 90.9041 291.558 90.4841 291.558H89.3361V293H90.8481C91.6321 293 92.2341 292.79 92.6541 292.37C93.0741 291.95 93.2981 291.348 93.2981 290.564V283.2ZM101.363 285.832H99.8514V289.388C99.8514 290.13 99.6834 290.718 99.3614 291.138C99.0254 291.558 98.5774 291.768 98.0034 291.768C97.4434 291.768 97.0374 291.586 96.7574 291.222C96.4774 290.858 96.3374 290.326 96.3374 289.626V285.832H94.8254V289.78C94.8254 290.942 95.0774 291.782 95.6094 292.3C96.1274 292.832 96.8134 293.084 97.6534 293.084C98.5774 293.084 99.3194 292.762 99.8654 292.09L100.033 293H101.363V285.832ZM102.853 283.2V293H104.365V283.2H102.853ZM106.744 285.832H105.134L107.934 293.056L107.64 293.742C107.514 294.05 107.402 294.26 107.29 294.344C107.178 294.428 106.968 294.47 106.688 294.47H105.624V295.8H107.248C107.584 295.8 107.864 295.744 108.074 295.632C108.27 295.52 108.452 295.338 108.592 295.114C108.732 294.89 108.886 294.554 109.054 294.12L112.302 285.832H110.692L108.746 291.362L106.744 285.832ZM458.112 293H459.778L460.688 290.578H464.706L465.63 293H467.352L463.698 283.2H461.78L458.112 293ZM461.136 289.206L462.69 284.936L464.258 289.206H461.136ZM474.383 285.832H472.871V289.388C472.871 290.13 472.703 290.718 472.381 291.138C472.045 291.558 471.597 291.768 471.023 291.768C470.463 291.768 470.057 291.586 469.777 291.222C469.497 290.858 469.357 290.326 469.357 289.626V285.832H467.845V289.78C467.845 290.942 468.097 291.782 468.629 292.3C469.147 292.832 469.833 293.084 470.673 293.084C471.597 293.084 472.339 292.762 472.885 292.09L473.053 293H474.383V285.832ZM482.831 285.832H481.515L481.347 286.952C481.095 286.588 480.787 286.294 480.395 286.07C480.003 285.86 479.527 285.748 478.995 285.748C478.351 285.748 477.763 285.902 477.259 286.21C476.741 286.518 476.335 286.938 476.041 287.484C475.747 288.044 475.607 288.674 475.607 289.388C475.607 290.144 475.747 290.788 476.041 291.334C476.321 291.88 476.727 292.3 477.245 292.594C477.749 292.888 478.337 293.028 478.995 293.028C480.031 293.028 480.801 292.636 481.333 291.852V292.65C481.333 293.994 480.647 294.652 479.275 294.652C478.743 294.652 478.309 294.554 477.973 294.33C477.637 294.106 477.413 293.798 477.329 293.392H475.789C475.845 294.19 476.181 294.806 476.797 295.24C477.399 295.674 478.183 295.884 479.163 295.884C480.409 295.884 481.333 295.618 481.935 295.058C482.523 294.498 482.831 293.714 482.831 292.706V285.832ZM480.759 291.11C480.367 291.544 479.863 291.754 479.247 291.754C478.617 291.754 478.113 291.544 477.735 291.096C477.343 290.662 477.161 290.088 477.161 289.388C477.161 288.688 477.343 288.128 477.735 287.68C478.113 287.246 478.617 287.022 479.247 287.022C479.863 287.022 480.367 287.246 480.759 287.694C481.137 288.142 481.333 288.716 481.333 289.416C481.333 290.116 481.137 290.676 480.759 291.11ZM490.734 285.832H489.222V289.388C489.222 290.13 489.054 290.718 488.732 291.138C488.396 291.558 487.948 291.768 487.374 291.768C486.814 291.768 486.408 291.586 486.128 291.222C485.848 290.858 485.708 290.326 485.708 289.626V285.832H484.196V289.78C484.196 290.942 484.448 291.782 484.98 292.3C485.498 292.832 486.184 293.084 487.024 293.084C487.948 293.084 488.69 292.762 489.236 292.09L489.404 293H490.734V285.832ZM493.428 290.634H491.972C491.986 291.404 492.294 292.006 492.882 292.44C493.47 292.874 494.254 293.084 495.22 293.084C495.78 293.084 496.298 293 496.76 292.818C497.208 292.636 497.572 292.37 497.838 292.034C498.09 291.698 498.23 291.292 498.23 290.844C498.23 290.34 498.104 289.948 497.852 289.654C497.6 289.36 497.264 289.15 496.844 289.01C496.424 288.87 495.906 288.772 495.29 288.702C494.828 288.646 494.492 288.604 494.296 288.562C494.086 288.52 493.918 288.45 493.778 288.338C493.638 288.226 493.582 288.072 493.582 287.848C493.582 287.568 493.708 287.33 493.988 287.162C494.254 286.994 494.604 286.91 495.052 286.91C495.486 286.91 495.85 287.022 496.144 287.232C496.424 287.442 496.592 287.708 496.634 288.03H498.104C498.048 287.302 497.74 286.742 497.18 286.336C496.62 285.944 495.878 285.734 494.982 285.734C494.422 285.734 493.932 285.832 493.498 286.014C493.064 286.21 492.728 286.476 492.476 286.812C492.224 287.148 492.112 287.54 492.112 287.974C492.112 288.45 492.224 288.814 492.476 289.094C492.728 289.374 493.05 289.57 493.456 289.696C493.862 289.822 494.38 289.92 495.01 289.99C495.458 290.046 495.794 290.102 496.018 290.158C496.242 290.214 496.41 290.298 496.55 290.41C496.676 290.536 496.746 290.718 496.746 290.956C496.746 291.25 496.592 291.488 496.312 291.656C496.032 291.824 495.654 291.908 495.206 291.908C494.688 291.908 494.268 291.796 493.946 291.558C493.624 291.32 493.456 291.012 493.428 290.634ZM499.919 287.162V291.054C499.919 291.726 500.073 292.216 500.381 292.524C500.689 292.846 501.193 293 501.879 293H503.335V291.67H502.187C501.907 291.67 501.725 291.614 501.613 291.502C501.501 291.39 501.445 291.18 501.445 290.9V287.162H503.167V285.832H501.445V283.83H499.919V285.832H498.673V287.162H499.919ZM851.114 289.808L849.532 289.78C849.532 290.424 849.7 290.998 850.036 291.502C850.372 292.006 850.834 292.384 851.422 292.664C852.01 292.944 852.682 293.084 853.466 293.084C854.166 293.084 854.782 292.958 855.342 292.706C855.888 292.454 856.322 292.09 856.63 291.628C856.938 291.18 857.092 290.662 857.092 290.074C857.092 289.486 856.938 288.996 856.658 288.632C856.364 288.268 855.986 288.002 855.538 287.806C855.076 287.624 854.53 287.47 853.9 287.358C853.27 287.246 852.794 287.148 852.458 287.05C852.122 286.966 851.842 286.826 851.646 286.63C851.45 286.448 851.352 286.196 851.352 285.874C851.352 285.426 851.52 285.09 851.856 284.838C852.192 284.586 852.654 284.46 853.228 284.46C853.816 284.46 854.292 284.614 854.684 284.922C855.062 285.23 855.286 285.636 855.342 286.14H856.924C856.896 285.552 856.714 285.034 856.406 284.572C856.084 284.124 855.65 283.76 855.104 283.494C854.544 283.242 853.928 283.102 853.228 283.102C852.542 283.102 851.94 283.228 851.408 283.466C850.876 283.718 850.47 284.054 850.176 284.488C849.882 284.936 849.742 285.426 849.742 285.986C849.742 286.602 849.882 287.092 850.162 287.456C850.442 287.834 850.82 288.114 851.268 288.296C851.716 288.478 852.262 288.618 852.906 288.73C853.522 288.842 854.012 288.954 854.362 289.052C854.698 289.164 854.978 289.304 855.174 289.5C855.37 289.696 855.482 289.948 855.482 290.27C855.482 290.732 855.286 291.096 854.922 291.348C854.558 291.6 854.068 291.726 853.48 291.726C852.794 291.726 852.234 291.558 851.814 291.208C851.394 290.858 851.156 290.396 851.114 289.808ZM858.523 287.498C858.229 288.058 858.089 288.702 858.089 289.43C858.089 290.158 858.229 290.802 858.537 291.348C858.845 291.908 859.265 292.328 859.825 292.636C860.385 292.944 861.029 293.084 861.785 293.084C862.639 293.084 863.353 292.86 863.927 292.384C864.501 291.922 864.851 291.32 864.991 290.592H863.479C863.367 290.998 863.157 291.306 862.849 291.53C862.527 291.754 862.135 291.852 861.673 291.852C861.085 291.852 860.609 291.67 860.259 291.306C859.895 290.942 859.699 290.452 859.671 289.822V289.738H865.075C865.103 289.542 865.117 289.36 865.117 289.164C865.103 288.478 864.949 287.876 864.641 287.358C864.333 286.854 863.927 286.448 863.395 286.168C862.863 285.888 862.261 285.748 861.575 285.748C860.889 285.748 860.287 285.902 859.755 286.21C859.223 286.518 858.817 286.938 858.523 287.498ZM863.577 288.632H859.727C859.783 288.128 859.979 287.736 860.343 287.428C860.707 287.12 861.127 286.966 861.631 286.966C862.163 286.966 862.597 287.12 862.947 287.414C863.297 287.708 863.507 288.114 863.577 288.632ZM871.926 286.196C871.408 285.902 870.82 285.748 870.176 285.748C869.196 285.748 868.412 286.14 867.838 286.896L867.656 285.832H866.34V295.8H867.852V291.992C868.076 292.328 868.398 292.594 868.79 292.79C869.182 292.986 869.644 293.084 870.176 293.084C870.82 293.084 871.408 292.944 871.926 292.636C872.43 292.328 872.836 291.908 873.13 291.348C873.41 290.788 873.564 290.144 873.564 289.416C873.564 288.674 873.41 288.03 873.13 287.47C872.836 286.91 872.43 286.49 871.926 286.196ZM871.436 291.138C871.044 291.586 870.54 291.81 869.924 291.81C869.294 291.81 868.79 291.586 868.412 291.138C868.02 290.69 867.838 290.116 867.838 289.388C867.838 288.688 868.02 288.128 868.412 287.694C868.79 287.26 869.294 287.036 869.924 287.036C870.54 287.036 871.044 287.26 871.436 287.694C871.828 288.142 872.024 288.716 872.024 289.416C872.024 290.116 871.828 290.69 871.436 291.138ZM875.183 287.162V291.054C875.183 291.726 875.337 292.216 875.645 292.524C875.953 292.846 876.457 293 877.143 293H878.599V291.67H877.451C877.171 291.67 876.989 291.614 876.877 291.502C876.765 291.39 876.709 291.18 876.709 290.9V287.162H878.431V285.832H876.709V283.83H875.183V285.832H873.937V287.162H875.183ZM879.428 287.498C879.134 288.058 878.994 288.702 878.994 289.43C878.994 290.158 879.134 290.802 879.442 291.348C879.75 291.908 880.17 292.328 880.73 292.636C881.29 292.944 881.934 293.084 882.69 293.084C883.544 293.084 884.258 292.86 884.832 292.384C885.406 291.922 885.756 291.32 885.896 290.592H884.384C884.272 290.998 884.062 291.306 883.754 291.53C883.432 291.754 883.04 291.852 882.578 291.852C881.99 291.852 881.514 291.67 881.164 291.306C880.8 290.942 880.604 290.452 880.576 289.822V289.738H885.98C886.008 289.542 886.022 289.36 886.022 289.164C886.008 288.478 885.854 287.876 885.546 287.358C885.238 286.854 884.832 286.448 884.3 286.168C883.768 285.888 883.166 285.748 882.48 285.748C881.794 285.748 881.192 285.902 880.66 286.21C880.128 286.518 879.722 286.938 879.428 287.498ZM884.482 288.632H880.632C880.688 288.128 880.884 287.736 881.248 287.428C881.612 287.12 882.032 286.966 882.536 286.966C883.068 286.966 883.502 287.12 883.852 287.414C884.202 287.708 884.412 288.114 884.482 288.632ZM897.436 286.518C896.932 286.014 896.302 285.748 895.518 285.748C894.93 285.748 894.44 285.874 894.034 286.098C893.614 286.322 893.292 286.644 893.04 287.05C892.83 286.616 892.536 286.294 892.158 286.07C891.766 285.86 891.332 285.748 890.828 285.748C889.932 285.762 889.232 286.098 888.728 286.77L888.56 285.832H887.244V293H888.756V289.164C888.756 288.52 888.896 288.016 889.204 287.624C889.512 287.246 889.918 287.05 890.436 287.05C890.926 287.05 891.304 287.218 891.556 287.54C891.808 287.862 891.948 288.338 891.948 288.968V293H893.474V289.122C893.474 288.478 893.614 287.974 893.922 287.61C894.23 287.246 894.636 287.05 895.168 287.05C895.658 287.05 896.036 287.218 896.288 287.54C896.54 287.876 896.666 288.352 896.666 288.968V293H898.178V288.954C898.178 287.834 897.926 287.022 897.436 286.518ZM905.135 286.196C904.617 285.902 904.029 285.748 903.385 285.748C902.405 285.748 901.621 286.14 901.061 286.896V283.2H899.549V293H900.865L901.047 291.964C901.285 292.314 901.607 292.594 901.999 292.79C902.391 292.986 902.853 293.084 903.385 293.084C904.029 293.084 904.617 292.93 905.135 292.622C905.639 292.314 906.045 291.894 906.339 291.334C906.619 290.774 906.773 290.144 906.773 289.416C906.773 288.66 906.619 288.016 906.339 287.456C906.045 286.91 905.639 286.49 905.135 286.196ZM904.645 291.152C904.253 291.6 903.749 291.81 903.133 291.81C902.503 291.81 901.999 291.586 901.621 291.138C901.229 290.69 901.047 290.116 901.047 289.402C901.047 288.702 901.229 288.142 901.621 287.694C901.999 287.26 902.503 287.036 903.133 287.036C903.749 287.036 904.253 287.26 904.645 287.708C905.037 288.156 905.233 288.716 905.233 289.416C905.233 290.13 905.037 290.704 904.645 291.152ZM908.152 287.498C907.858 288.058 907.718 288.702 907.718 289.43C907.718 290.158 907.858 290.802 908.166 291.348C908.474 291.908 908.894 292.328 909.454 292.636C910.014 292.944 910.658 293.084 911.414 293.084C912.268 293.084 912.982 292.86 913.556 292.384C914.13 291.922 914.48 291.32 914.62 290.592H913.108C912.996 290.998 912.786 291.306 912.478 291.53C912.156 291.754 911.764 291.852 911.302 291.852C910.714 291.852 910.238 291.67 909.888 291.306C909.524 290.942 909.328 290.452 909.3 289.822V289.738H914.704C914.732 289.542 914.746 289.36 914.746 289.164C914.732 288.478 914.578 287.876 914.27 287.358C913.962 286.854 913.556 286.448 913.024 286.168C912.492 285.888 911.89 285.748 911.204 285.748C910.518 285.748 909.916 285.902 909.384 286.21C908.852 286.518 908.446 286.938 908.152 287.498ZM913.206 288.632H909.356C909.412 288.128 909.608 287.736 909.972 287.428C910.336 287.12 910.756 286.966 911.26 286.966C911.792 286.966 912.226 287.12 912.576 287.414C912.926 287.708 913.136 288.114 913.206 288.632ZM919.931 285.832H919.595C919.035 285.832 918.601 285.93 918.279 286.126C917.943 286.322 917.677 286.574 917.481 286.91L917.313 285.832H915.969V293H917.481V289.402C917.481 288.786 917.621 288.268 917.901 287.862C918.181 287.456 918.629 287.246 919.259 287.246H919.931V285.832Z" stroke="#1459F5" stroke-width="1.5"/>
</svg>
