<svg width="22" height="22" viewBox="0 0 22 22" fill="none" xmlns="http://www.w3.org/2000/svg">
<g clip-path="url(#clip0_23_7927)">
<path d="M2.31641 17.3682H19.6848" stroke="#747474" stroke-width="1.83333" stroke-linecap="round" stroke-linejoin="round"/>
<path d="M19.6848 17.3684C19.2428 17.3147 18.8316 17.1145 18.5168 16.7996C18.2019 16.4848 18.0017 16.0736 17.948 15.6316V11.2895C17.948 6.94736 14.9815 3.10547 11.0006 3.10547C7.01977 3.10547 4.05325 6.94736 4.05325 11.2895V15.6316C3.99955 16.0736 3.7993 16.4848 3.48447 16.7996C3.16964 17.1145 2.75839 17.3147 2.31641 17.3684" stroke="#747474" stroke-width="1.83333" stroke-linecap="round" stroke-linejoin="round"/>
<path d="M14.4747 17.3682C14.4747 18.2894 14.1087 19.173 13.4573 19.8244C12.8059 20.4759 11.9223 20.8418 11.001 20.8418C10.0797 20.8418 9.1962 20.4759 8.54476 19.8244C7.89332 19.173 7.52734 18.2894 7.52734 17.3682" stroke="#747474" stroke-width="1.83333" stroke-linecap="round" stroke-linejoin="round"/>
<path d="M11.001 3.10522V0.868164" stroke="#747474" stroke-width="1.83333" stroke-linecap="round" stroke-linejoin="round"/>
</g>
<defs>
<clipPath id="clip0_23_7927">
<rect width="22" height="22" fill="white"/>
</clipPath>
</defs>
</svg>
