<svg width="24" height="24" viewBox="0 0 24 24" fill="none" xmlns="http://www.w3.org/2000/svg">
<rect width="22" height="22" transform="translate(1 1)" fill="#1A1A1A"/>
<path d="M10.762 3.81892C10.918 3.99254 11.1088 4.1314 11.322 4.22645C11.5353 4.32149 11.7661 4.37062 11.9995 4.37062C12.2329 4.37062 12.4638 4.32149 12.677 4.22645C12.8902 4.1314 13.081 3.99254 13.237 3.81892L14.0483 2.92517C14.2812 2.67034 14.5866 2.4929 14.9233 2.4167C15.26 2.34051 15.612 2.3692 15.932 2.49892C16.2518 2.63186 16.5225 2.8605 16.7072 3.15346C16.8918 3.44642 16.9813 3.78934 16.9633 4.13517V5.33142C16.947 5.56674 16.9813 5.80282 17.064 6.02374C17.1467 6.24466 17.2758 6.44528 17.4426 6.61208C17.6094 6.77888 17.81 6.90797 18.0309 6.99066C18.2518 7.07335 18.4879 7.10771 18.7233 7.09142H19.9195C20.2653 7.0734 20.6083 7.16285 20.9012 7.34749C21.1942 7.53213 21.4228 7.80291 21.5558 8.12267C21.6855 8.44263 21.7142 8.79463 21.638 9.13137C21.5618 9.46812 21.3843 9.77347 21.1295 10.0064L20.2495 10.7627C20.0759 10.9187 19.937 11.1095 19.842 11.3227C19.7469 11.5359 19.6978 11.7667 19.6978 12.0002C19.6978 12.2336 19.7469 12.4644 19.842 12.6776C19.937 12.8908 20.0759 13.0816 20.2495 13.2377L21.1433 14.0489C21.3981 14.2819 21.5755 14.5872 21.6517 14.924C21.7279 15.2607 21.6992 15.6127 21.5695 15.9327C21.4366 16.2524 21.2079 16.5232 20.915 16.7078C20.622 16.8925 20.2791 16.9819 19.9333 16.9639H18.737C18.5017 16.9476 18.2656 16.982 18.0447 17.0647C17.8238 17.1474 17.6231 17.2765 17.4563 17.4433C17.2895 17.6101 17.1604 17.8107 17.0778 18.0316C16.9951 18.2525 16.9607 18.4886 16.977 18.7239V19.9202C16.995 20.266 16.9056 20.6089 16.7209 20.9019C16.5363 21.1948 16.2655 21.4235 15.9458 21.5564C15.6258 21.6861 15.2738 21.7148 14.9371 21.6386C14.6003 21.5624 14.2949 21.385 14.062 21.1302L13.237 20.2502C13.081 20.0765 12.8902 19.9377 12.677 19.8426C12.4638 19.7476 12.2329 19.6985 11.9995 19.6985C11.7661 19.6985 11.5353 19.7476 11.322 19.8426C11.1088 19.9377 10.918 20.0765 10.762 20.2502L9.95075 21.1439C9.71781 21.3987 9.41245 21.5762 9.07571 21.6524C8.73896 21.7286 8.38696 21.6999 8.067 21.5702C7.74725 21.4372 7.47646 21.2086 7.29182 20.9156C7.10718 20.6227 7.01774 20.2797 7.03575 19.9339V18.7377C7.05204 18.5023 7.01769 18.2663 6.935 18.0453C6.85231 17.8244 6.72322 17.6238 6.55642 17.457C6.38962 17.2902 6.189 17.1611 5.96808 17.0784C5.74716 16.9957 5.51108 16.9614 5.27575 16.9777H4.0795C3.73368 16.9957 3.39076 16.9062 3.09779 16.7216C2.80483 16.537 2.57619 16.2662 2.44325 15.9464C2.31353 15.6265 2.28484 15.2745 2.36104 14.9377C2.43724 14.601 2.61467 14.2956 2.8695 14.0627L3.76325 13.2514C3.93688 13.0954 4.07573 12.9046 4.17078 12.6914C4.26583 12.4782 4.31495 12.2473 4.31495 12.0139C4.31495 11.7805 4.26583 11.5497 4.17078 11.3365C4.07573 11.1233 3.93688 10.9324 3.76325 10.7764L2.8695 9.96517C2.61467 9.73222 2.43724 9.42687 2.36104 9.09012C2.28484 8.75338 2.31353 8.40138 2.44325 8.08142C2.57619 7.76166 2.80483 7.49088 3.09779 7.30624C3.39076 7.1216 3.73368 7.03215 4.0795 7.05017H5.27575C5.5118 7.07415 5.75024 7.04695 5.97481 6.97042C6.19939 6.89388 6.40482 6.76982 6.57709 6.60668C6.74936 6.44354 6.88443 6.24517 6.97307 6.0251C7.06172 5.80502 7.10186 5.56842 7.09075 5.33142V4.13517C7.07274 3.78934 7.16218 3.44642 7.34682 3.15346C7.53146 2.8605 7.80225 2.63186 8.122 2.49892C8.44196 2.3692 8.79396 2.34051 9.13071 2.4167C9.46745 2.4929 9.77281 2.67034 10.0058 2.92517L10.762 3.81892Z" stroke="#747474" stroke-width="1.83333" stroke-linecap="round" stroke-linejoin="round"/>
<path d="M12 15.0938C13.7086 15.0938 15.0938 13.7086 15.0938 12C15.0938 10.2914 13.7086 8.90625 12 8.90625C10.2914 8.90625 8.90625 10.2914 8.90625 12C8.90625 13.7086 10.2914 15.0938 12 15.0938Z" stroke="#747474" stroke-width="1.83333" stroke-linecap="round" stroke-linejoin="round"/>
</svg>
