<svg width="24" height="24" viewBox="0 0 24 24" fill="none" xmlns="http://www.w3.org/2000/svg">
<path fill-rule="evenodd" clip-rule="evenodd" d="M4.39403 2.10254L0.0179909 11.2944C0.00133879 11.3286 -0.00393815 11.3672 0.00293176 11.4046C0.00980167 11.442 0.028458 11.4763 0.0561725 11.5023L11.8748 22.8274C11.9084 22.8596 11.9531 22.8776 11.9996 22.8776C12.0461 22.8776 12.0908 22.8596 12.1244 22.8274L23.943 11.503C23.9708 11.477 23.9894 11.4427 23.9963 11.4053C24.0032 11.3679 23.9979 11.3293 23.9812 11.2951L19.6052 2.10325C19.5911 2.07238 19.5683 2.04622 19.5398 2.02792C19.5112 2.00961 19.4779 1.99992 19.444 2.00001H4.55666C4.52255 1.99959 4.48905 2.00904 4.46019 2.02724C4.43133 2.04543 4.40836 2.07158 4.39403 2.10254Z" fill="#50AF95"/>
<path fill-rule="evenodd" clip-rule="evenodd" d="M13.5176 12.2385C13.4328 12.2449 12.9944 12.2711 12.0165 12.2711C11.2388 12.2711 10.6865 12.2477 10.4928 12.2385C7.48706 12.1063 5.24354 11.5831 5.24354 10.9566C5.24354 10.3302 7.48706 9.80763 10.4928 9.67329V11.7174C10.6894 11.7316 11.2522 11.7648 12.03 11.7648C12.9633 11.7648 13.4307 11.7259 13.5148 11.7181V9.67471C16.5142 9.80834 18.7528 10.3316 18.7528 10.9566C18.7528 11.5817 16.5149 12.1049 13.5148 12.2378L13.5176 12.2385ZM13.5176 9.46329V7.63411H17.7035V4.84473H6.30697V7.63411H10.4921V9.46259C7.0904 9.61885 4.53223 10.2927 4.53223 11.1002C4.53223 11.9076 7.0904 12.5808 10.4921 12.7377V18.5993H13.5169V12.7356C16.9109 12.5793 19.4648 11.9062 19.4648 11.0994C19.4648 10.2927 16.913 9.61955 13.5169 9.46259L13.5176 9.46329Z" fill="white"/>
</svg>
